<svg width="24" height="25" viewBox="0 0 24 25" fill="none" xmlns="http://www.w3.org/2000/svg">
    <path d="M10.4406 0.308111C10.1497 0.351212 9.83182 0.410473 9.73485 0.442799C9.55167 0.50206 9.32001 0.717558 9.2392 0.90073C9.21765 0.959993 9.17994 1.45564 9.16378 1.99977L9.13684 2.98567L8.70585 3.14191C8.4688 3.22811 8.07552 3.40051 7.82769 3.51903L7.38054 3.7453L6.73943 3.11497C6.066 2.45231 5.86666 2.3284 5.48416 2.3284C5.2094 2.3284 4.92925 2.51158 4.12652 3.19578C3.31302 3.89076 2.66652 4.60729 2.14933 5.39386C1.93383 5.72788 1.89073 5.83024 1.89073 6.04035C1.89612 6.17504 1.92306 6.34205 1.96077 6.4067C1.99848 6.47135 2.3325 6.84847 2.70962 7.24714L3.39383 7.96906L3.21604 8.39466C3.11907 8.63171 2.98438 8.9819 2.91973 9.18123L2.79582 9.54758H1.82069C0.727043 9.54758 0.56542 9.58529 0.349922 9.90854C0.134424 10.2372 0.0859375 10.652 0.0859375 12.2952C0.0913249 14.4286 0.172137 14.8219 0.657006 15.0913C0.834792 15.1936 0.947928 15.2044 1.82069 15.2044H2.78505L2.88202 15.5115C2.93051 15.6839 3.12446 16.131 3.30224 16.5135L3.63626 17.1977L2.95744 17.8873C2.42409 18.4261 2.26785 18.62 2.21936 18.787C2.09545 19.2557 2.35405 19.6598 3.58778 20.8935C4.41744 21.7286 5.45183 22.5421 5.76969 22.6121C6.09294 22.6822 6.30305 22.5529 7.06268 21.804L7.78998 21.0875L8.46341 21.3407L9.13684 21.5939L9.16378 22.5852C9.1961 23.6196 9.22304 23.7704 9.44931 23.9751C9.7564 24.2661 10.7207 24.39 12.2346 24.3469C13.7 24.2984 14.2549 24.1691 14.6159 23.7866C14.8475 23.5442 14.8745 23.3933 14.8745 22.429V21.5239L15.3755 21.3461C15.6449 21.2491 15.9897 21.109 16.1405 21.0444L16.4045 20.9205L17.0564 21.5885C18.0046 22.5636 18.15 22.5852 19.1036 21.874C19.8201 21.3353 21.1024 20.08 21.5441 19.4766C22.1206 18.6901 22.0775 18.48 21.1455 17.521L20.4882 16.8476L20.7468 16.3088C20.8922 16.0125 21.0593 15.6084 21.1239 15.4091L21.237 15.0482L22.2822 15.032C23.2466 15.0158 23.3381 15.0051 23.4782 14.9027C23.7206 14.7195 23.8122 14.504 23.9038 13.8791C24.017 13.1087 24.0331 11.0291 23.9361 10.4796C23.8499 10.0324 23.6345 9.65533 23.3759 9.4937C23.2142 9.39673 23.1011 9.38595 22.2283 9.38595H21.2586L21.1616 9.03038C21.1131 8.83643 20.9946 8.51319 20.903 8.32463L20.736 7.96906L21.4364 7.2633C22.1529 6.54677 22.2553 6.39592 22.2553 6.07806C22.2553 5.77637 21.501 4.72043 20.6444 3.82072C20.1757 3.33047 19.2437 2.56545 18.9851 2.4577C18.775 2.36612 18.4679 2.36073 18.3063 2.44154C18.2416 2.47386 17.8807 2.8025 17.5089 3.17423L16.8355 3.84227L16.3614 3.58907C16.1028 3.45438 15.6718 3.26043 15.3971 3.16346L14.9014 2.98567L14.8745 1.99977C14.8583 1.45564 14.8152 0.949217 14.7829 0.873793C14.7075 0.701395 14.5081 0.518223 14.3196 0.448185C13.7808 0.243462 11.5235 0.162651 10.4406 0.308111ZM13.0858 2.03209C13.1343 2.04826 13.1505 2.27453 13.1505 2.92102C13.1505 4.16013 13.199 4.24095 14.1041 4.53725C14.9014 4.80124 15.8765 5.25917 16.5715 5.69555C16.7493 5.80869 17.0079 5.84102 17.2503 5.77637C17.4335 5.72788 17.6113 5.58781 18.1123 5.09216L18.748 4.46722L19.0066 4.6881C19.4376 5.04906 20.2619 5.95954 20.2619 6.07806C20.2619 6.105 19.9441 6.44441 19.5562 6.83231C18.8666 7.5219 18.845 7.55422 18.8235 7.80743C18.7965 8.03909 18.8235 8.1199 19.039 8.52935C19.3622 9.14352 19.5346 9.57451 19.7016 10.1941C19.9548 11.1153 19.9764 11.1261 21.2855 11.1638L22.2822 11.1907L22.3253 11.7457C22.3469 12.0473 22.3469 12.543 22.3253 12.8501L22.2822 13.3996L21.2855 13.4265C19.971 13.4642 19.9548 13.475 19.7016 14.4232C19.5077 15.1451 19.2437 15.7808 18.8881 16.3681C18.4248 17.1331 18.4517 17.2408 19.3784 18.1675L20.0464 18.8409L19.3891 19.4874C19.0228 19.8484 18.6618 20.1932 18.581 20.2686L18.4302 20.3925L17.7729 19.746C16.8409 18.8355 16.7331 18.814 15.7688 19.3258C15.1385 19.6598 14.6913 19.8376 14.0664 19.9992C13.2151 20.2147 13.1828 20.2686 13.1505 21.5616L13.1235 22.5583L12.6656 22.5906C12.4124 22.6121 11.9329 22.6121 11.6043 22.596L10.9955 22.569V21.7016C10.9955 21.2222 10.9686 20.7427 10.9416 20.6349C10.8716 20.3871 10.5807 20.1285 10.2844 20.0531C9.62171 19.8861 9.09374 19.6921 8.5981 19.4389C7.93005 19.0887 7.83308 19.0672 7.51522 19.1426C7.30511 19.1965 7.15965 19.3096 6.57242 19.8807L5.87744 20.5487L5.58652 20.3279C5.43028 20.2039 5.06393 19.8591 4.77301 19.5628L4.24504 19.0187L4.84305 18.4207C5.49493 17.7527 5.60807 17.5856 5.60807 17.2355C5.60807 17.0469 5.55419 16.9176 5.30098 16.5189C4.92925 15.9425 4.60062 15.2098 4.36895 14.4501C4.06187 13.4589 4.008 13.4265 2.70423 13.4265H1.78298L1.71833 13.2811C1.63752 13.0817 1.63752 11.5086 1.71833 11.3093L1.78298 11.1638H2.70423C3.97567 11.1638 4.08342 11.1045 4.30969 10.2749C4.44438 9.79001 4.79995 8.85798 5.09087 8.24382C5.19862 8.01754 5.28482 7.78049 5.28482 7.71585C5.28482 7.45186 5.09087 7.1771 4.46593 6.54677L3.81405 5.89489L4.63294 5.07061L5.45722 4.25172L6.13604 4.92515C6.51316 5.29688 6.87412 5.63091 6.93877 5.66323C7.1812 5.78714 7.3967 5.72788 8.19404 5.32382C8.99138 4.91976 9.49241 4.71504 10.085 4.56419C10.8069 4.37563 10.8554 4.28943 10.8878 3.02877L10.9147 2.03209L11.2918 1.99977C11.6636 1.96744 12.9512 1.99438 13.0858 2.03209Z"
          fill="white"/>
    <path d="M11.1199 7.19869C8.95949 7.61352 7.30016 9.28363 6.92842 11.4278C6.52975 13.7013 7.7096 15.9533 9.82687 16.9553C10.6511 17.3486 11.039 17.4294 12.0196 17.4294C12.7038 17.4294 12.93 17.4133 13.2748 17.3163C14.8103 16.8961 15.9955 15.9102 16.6743 14.4987C17.0676 13.6906 17.1538 13.2811 17.1538 12.2952C17.1538 11.3093 17.0676 10.8999 16.6743 10.0917C15.9847 8.65869 14.7294 7.63507 13.1994 7.25795C12.7145 7.13943 11.6047 7.1071 11.1199 7.19869ZM13.0432 9.00348C13.5442 9.15972 14.0398 9.4668 14.4439 9.87086C14.848 10.2803 15.0958 10.6682 15.2951 11.2285C15.419 11.5733 15.4352 11.7026 15.4352 12.2952C15.4352 12.8878 15.419 13.0171 15.2951 13.3619C15.0958 13.9222 14.848 14.3101 14.4439 14.7196C14.0345 15.129 13.5442 15.4307 13.0162 15.5977C12.7091 15.6947 12.5152 15.7162 11.9926 15.7162C11.4323 15.7108 11.2923 15.6893 10.9528 15.5708C10.3925 15.3714 10.0047 15.1236 9.59521 14.7196C8.36148 13.4804 8.23218 11.6326 9.28812 10.2103C9.73528 9.61226 10.5326 9.09507 11.2761 8.92806C11.7394 8.82031 12.5852 8.85802 13.0432 9.00348Z"
          fill="white"/>
</svg>
