<svg width="24" height="24" viewBox="0 0 24 24" fill="none" xmlns="http://www.w3.org/2000/svg">
<g filter="url(#filter0_d_38_3)">
<path d="M11.4232 0.0844087C11.2929 0.136067 11.1313 0.216424 11.0584 0.273822C10.7666 0.474714 0.0678682 10.3184 0.0366007 10.4103C-0.0572018 10.6915 0.00012194 10.8293 0.557725 11.5582C0.859978 11.9543 1.16223 12.3044 1.22998 12.3331C1.29772 12.3618 1.42279 12.3618 1.50617 12.3389C1.59476 12.3102 3.92419 10.2094 6.82686 7.54039C11.517 3.22981 11.9964 2.80507 12.085 2.87394C12.1371 2.91412 14.4718 5.05506 17.2754 7.62649C20.0791 10.1979 22.4293 12.3216 22.4971 12.3446C22.7472 12.4192 22.9036 12.2872 23.4351 11.5812C23.7165 11.2024 23.9666 10.8408 23.9875 10.7834C24.0083 10.726 24.0031 10.594 23.9719 10.4849C23.9302 10.3299 23.6175 10.02 22.2574 8.77445L20.5898 7.2534V3.82675V0.405837L20.4543 0.227903L20.3188 0.04997H18.6877C17.1608 0.04997 17.0513 0.0557098 16.9367 0.159026L16.8116 0.268082L16.7855 2.00724L16.7595 3.74065L14.9095 2.0302C13.7057 0.922417 12.9605 0.273822 12.7729 0.176245C12.4081 -0.0131677 11.7723 -0.059086 11.4232 0.0844087Z" fill="white"/>
<path d="M9.85417 6.16839C8.69206 7.23025 6.77432 8.97515 5.59658 10.0427L3.44434 11.9943V16.1269C3.44434 19.0714 3.45997 20.2997 3.50166 20.3858C3.59025 20.5695 3.81433 20.8278 3.97588 20.9196C4.09053 20.9885 4.63771 21 7.11827 21H10.1147V17.8718V14.7436H12.0168H13.9189V17.8718V21L16.9571 20.9885L20.0005 20.9713L20.1933 20.8048C20.605 20.4605 20.5893 20.6786 20.5893 16.0867V12.0115L19.5367 11.0587C18.953 10.5364 17.0248 8.78573 15.2478 7.17285C13.4708 5.55997 12.0064 4.23982 11.9908 4.24556C11.9751 4.24556 11.0163 5.11227 9.85417 6.16839Z" fill="white"/>
</g>
<defs>
<filter id="filter0_d_38_3" x="-4" y="0.000244141" width="32" height="28.9998" filterUnits="userSpaceOnUse" color-interpolation-filters="sRGB">
<feFlood flood-opacity="0" result="BackgroundImageFix"/>
<feColorMatrix in="SourceAlpha" type="matrix" values="0 0 0 0 0 0 0 0 0 0 0 0 0 0 0 0 0 0 127 0" result="hardAlpha"/>
<feOffset dy="4"/>
<feGaussianBlur stdDeviation="2"/>
<feComposite in2="hardAlpha" operator="out"/>
<feColorMatrix type="matrix" values="0 0 0 0 0 0 0 0 0 0 0 0 0 0 0 0 0 0 0.25 0"/>
<feBlend mode="normal" in2="BackgroundImageFix" result="effect1_dropShadow_38_3"/>
<feBlend mode="normal" in="SourceGraphic" in2="effect1_dropShadow_38_3" result="shape"/>
</filter>
</defs>
</svg>
