<svg width="20" height="28" viewBox="0 0 20 28" fill="none" xmlns="http://www.w3.org/2000/svg">
<path d="M2.74414 0.965965C1.75391 1.2355 0.980469 2.02065 0.716797 3.02261C0.582031 3.52651 0.582031 24.4679 0.716797 24.9718C0.986328 26.0148 1.84766 26.8468 2.86719 27.0578C3.08398 27.1046 4.73047 27.1222 8.16992 27.1105C13.1035 27.0929 13.1621 27.0929 13.3203 26.9699C13.6309 26.7414 13.7246 26.5539 13.7246 26.1847C13.7246 25.8156 13.6309 25.6281 13.3203 25.3996C13.1621 25.2765 13.0977 25.2765 8.12891 25.2472C3.16016 25.2179 3.0957 25.2179 2.9375 25.0949C2.84961 25.0304 2.7207 24.9015 2.65625 24.8136L2.5332 24.6554V13.9972V3.33901L2.65625 3.18081C2.7207 3.09292 2.84961 2.96401 2.9375 2.89956C3.0957 2.77651 3.16016 2.77651 8.12891 2.74722C13.0977 2.71792 13.1621 2.71792 13.3203 2.59487C13.6309 2.36636 13.7246 2.17886 13.7246 1.80972C13.7246 1.44057 13.6309 1.25307 13.3203 1.02456C13.1621 0.901512 13.1094 0.901512 8.11133 0.889793C3.8457 0.878075 3.01367 0.889793 2.74414 0.965965Z" fill="white"/>
<path d="M14.3105 9.39174C13.918 9.56166 13.6953 10.007 13.7832 10.464C13.8184 10.6515 14 10.8683 15.002 11.8703L16.1797 13.0597L11.5156 13.0714C6.9043 13.089 6.8457 13.089 6.6875 13.2121C6.37695 13.4406 6.2832 13.6281 6.2832 13.9972C6.2832 14.3663 6.37695 14.5538 6.6875 14.7824C6.8457 14.9054 6.9043 14.9054 11.5156 14.923L16.1797 14.9347L15.002 16.1242C13.7305 17.4015 13.6895 17.466 13.7832 17.964C13.8359 18.2511 14.1875 18.6027 14.4746 18.6554C15.002 18.755 14.9609 18.7902 17.2227 16.5285C19.0449 14.7062 19.3203 14.4074 19.3496 14.2199C19.4492 13.6867 19.4785 13.7218 17.2812 11.5128C16.1445 10.3761 15.166 9.43861 15.0605 9.39174C14.8262 9.29213 14.5391 9.29213 14.3105 9.39174Z" fill="white"/>
</svg>
