
        <svg xmlns="http://www.w3.org/2000/svg" xmlns:xlink="http://www.w3.org/1999/xlink" version="1.1" width="3148.366641533833" height="3196.7729150958644" viewBox="0 0 3148.366641533833 3196.7729150958644">
			
			<g transform="scale(9.838645754793228) translate(10, 10)">
				<defs id="SvgjsDefs2177"><linearGradient id="SvgjsLinearGradient2184"><stop id="SvgjsStop2185" stop-color="#8f5e25" offset="0"/><stop id="SvgjsStop2186" stop-color="#fbf4a1" offset="0.5"/><stop id="SvgjsStop2187" stop-color="#8f5e25" offset="1"/></linearGradient><linearGradient id="SvgjsLinearGradient2188"><stop id="SvgjsStop2189" stop-color="#8f5e25" offset="0"/><stop id="SvgjsStop2190" stop-color="#fbf4a1" offset="0.5"/><stop id="SvgjsStop2191" stop-color="#8f5e25" offset="1"/></linearGradient><linearGradient id="SvgjsLinearGradient2192"><stop id="SvgjsStop2193" stop-color="#8f5e25" offset="0"/><stop id="SvgjsStop2194" stop-color="#fbf4a1" offset="0.5"/><stop id="SvgjsStop2195" stop-color="#8f5e25" offset="1"/></linearGradient></defs><g id="SvgjsG2178" featureKey="rootContainer" transform="matrix(1.6126578152361417,0,0,1.6126578152361417,0.0005636587994423351,0.000278176767664754)" fill="#000"><path xmlns="http://www.w3.org/2000/svg" d="M17.914 148.907zM22.657 154.94a90.586 90.586 0 0 0 5.861 6.251c6.914 6.805 15.159 12.525 24.004 16.851 3.259 1.526 6.265 3.107 9.787 4.468.88.338 1.779.7 2.724 1.026.953.302 1.941.604 2.974.903 1.027.321 2.122.549 3.267.786 1.146.23 2.336.493 3.614.624a91.24 91.24 0 0 1-18.434-5.99 93.833 93.833 0 0 1-16.873-9.842c-10.548-7.727-19.57-17.648-26.16-28.989-.272-.339-.685-.985-1.18-1.808l-.796-1.348-.803-1.551c-.534-1.076-1.149-2.168-1.62-3.226a71.281 71.281 0 0 0-1.326-2.748c2.048 5.101 4.412 9.563 7.059 13.806a93.473 93.473 0 0 0 3.869 5.697c-.192-.259-.392-.511-.583-.771a95.012 95.012 0 0 0 4.6 5.841l.016.02zM18.039 149.078l-.125-.17.125.17zM1.335 106.042l-.483-3.875c.256 2.365.553 5.008 1.096 7.654l-.327-1.879a23.961 23.961 0 0 1-.286-1.9zM85.812 185.575c6.652.673 13.628.472 20.461-.609 6.837-1.077 13.524-2.987 19.741-5.449-11.45 4.503-23.602 6.506-35.49 6.171-1.591-.025-3.159 0-4.712-.113z"/><path xmlns="http://www.w3.org/2000/svg" d="M46.426 171.967l-.259-.165c.087.055.172.111.259.165zM46.167 171.802zM43.653 170.135zM56.077 177.284A83.837 83.837 0 0 0 73.2 183.1c-9.688-2.21-18.805-6.109-26.774-11.133 3.06 1.947 6.277 3.749 9.651 5.317zM177.002 107.094c.098-1.58.296-3.238.346-4.027.594-5.071.77-9.401.745-13.745-.11-.783-.425-2.25-.55-3.918-.153-1.672-.378-3.309-.568-4.924-.289-1.601-.538-3.186-.854-4.74 2.275 11.617 2.237 23.279.144 34.282a94.97 94.97 0 0 1 .737-2.928z"/><path xmlns="http://www.w3.org/2000/svg" d="M.887 83.482c.848-6.9 2.653-13.626 4.37-18.107l-.695 3.28c.429-.961 1.122-3.194 2.067-5.557l.682-1.802.753-1.747c.5-1.131.92-2.203 1.363-3.025-.303.771-.595 1.602-.947 2.436-.345.837-.732 1.687-1.101 2.542l1.514-3.409A111.863 111.863 0 0 0 4.954 69.8c-1.133 4.352-2.029 8.926-2.511 13.032-.14 1.024-.189 2.024-.28 2.978-.067.954-.183 1.864-.192 2.724-.042 1.719-.1 3.224-.071 4.428.105 2.409.25 3.61.459 2.939.411-1.333.403-8.188 1.837-16.767.767-4.276 1.868-8.966 3.362-13.561 1.483-4.599 3.427-9.058 5.44-12.992l-.592 1.292-.545 1.331-1.116 2.691-1.024 2.78-.521 1.402c-.153.476-.308.954-.461 1.434-1.32 3.807-2.307 7.816-3.167 11.857l-.559 3.052c-.205 1.014-.292 2.046-.444 3.067-.318 2.041-.434 4.097-.611 6.129-.199 4.074-.239 8.098.13 11.946-.015-.914-.03-1.726-.017-2.512l.115-2.355c.048-.809.039-1.667.115-2.65.07-.983.134-2.091.19-3.402.391-6.608 1.572-13.15 3.408-19.481 1.75-6.358 3.814-11.957 6.889-17.03l.801-1.526c.542-1.024.993-2.034 1.566-3.064.653-1.13 1.278-1.976 1.784-2.751.521-.767.963-1.441 1.469-2.095l3.682-5.082c.075-.009-.022.185-.2.473a28.962 28.962 0 0 1 1.959-2.49c.755-.875 1.488-1.803 2.109-2.569.146-.007.288-.011.623-.251 8.65-9.197 19.295-16.692 31.291-21.417l2.667-1.039 2.7-.899 1.343-.448 1.36-.38 2.71-.753c1.55-.373 3.12-.751 4.721-1.091l2.437-.426c.819-.141 1.642-.3 2.484-.378 1.674-.201 3.134-.625 3.921-.729 4.369-.249 8.73-.199 13.849.216.397.007 1.015.043 1.732.082.717.041 1.537.061 2.332.134.932.21 1.927.418 2.971.621 6.369.988 12.527 2.754 18.386 5.103l-.007-.028 2.244.894 2.29 1.058c1.571.684 3.11 1.559 4.7 2.383.798.407 1.554.904 2.338 1.354.77.474 1.576.894 2.32 1.412 1.508 1.002 3.037 1.961 4.446 3.032a99.912 99.912 0 0 1 6.6 5.198c.046.042.094.081.14.122l.042.038 1.457 1.322 1.394 1.391 1.395 1.392c.462.467.89.967 1.337 1.449-.216-.35-.208-.491-.2-.63-.689-.66-1.504-1.441-2.309-2.21 1.343 1.222 2.515 2.327 3.477 3.229.371.474.776.94 1.16 1.449l1.186 1.566 1.261 1.629 1.255 1.752c2.226 2.838 4.191 5.874 6.057 8.97.864 1.588 1.817 3.131 2.586 4.774l1.213 2.436 1.092 2.497c.314.533.192.022.231-.068 1.225 2.962 2.21 6.042 3.102 9.146a88.212 88.212 0 0 1 3.408 17.211c.225 1.378.321 2.772.52 4.153l-.123 2.924c-.001 1.103.057 2.206.01 3.311l-.128 3.326c-.016.75-.124 1.569-.187 2.459-.084.888-.128 1.846-.256 2.856l-.412 3.192c-.132 1.119-.387 2.269-.583 3.471a90.635 90.635 0 0 1-4.312 15.482c-.242.826-.427 1.486-.592 1.855-.627 1.501-1.296 2.954-1.942 4.385-.723 1.394-1.386 2.788-2.127 4.108a86.09 86.09 0 0 1-7.949 12.379c-.336.439-.649.885-.987 1.297l-.998 1.206c-.66.779-1.25 1.558-1.876 2.234-1.251 1.352-2.301 2.606-3.286 3.549-1.128 1.178-1.027 1.233-.246.665a35.07 35.07 0 0 0 1.608-1.262l2.122-1.914c.776-.677 1.519-1.441 2.235-2.161.708-.725 1.416-1.386 1.962-1.984 1.101-1.191 1.824-1.926 1.67-1.599-1.777 3.345-5.013 7.471-9.743 12.035-2.413 2.227-5.128 4.647-8.339 6.98-1.566 1.221-3.307 2.338-5.082 3.558-1.834 1.123-3.708 2.353-5.757 3.445-4.484 2.442 3.365-1.475 3.577-1.512a22.87 22.87 0 0 1-2.377 1.64c-1.478.786-2.943 1.597-4.474 2.273-.895.411-1.774.855-2.679 1.239l-2.729 1.122 1.444-.568c2.952-1.173 5.711-2.555 8.202-3.922-.936.566-1.96 1.221-3.082 1.812-1.203.622-2.448 1.302-3.697 1.909l-3.625 1.686c12.968-4.711 24.885-12.507 34.319-22.67 4.723-5.066 8.935-10.631 12.369-16.651a93.904 93.904 0 0 0 8.288-18.999c-3.154 9.93-8.071 19.052-13.981 26.765 10.744-14.507 17.15-32.293 17.999-50.636-.001 1.011-.101 2.018-.168 3.025-.083 1.007-.123 2.018-.241 3.022-.257 2.005-.441 4.021-.827 6.009-.624 4-1.636 7.931-2.782 11.815 2.262-7.021 3.613-14.424 4.145-21.869.554-7.451.092-14.947-1.057-22.211 1.974 9.622 2.301 20.524.619 31.298 1.182-6.949 1.482-14.112 1.028-21.214-.102-2.713-.422-5.407-.685-7.901-.377-2.476-.662-4.762-1.027-6.611 1.445 6.826 2.015 12.648 2.293 18.136-.267-11.977-2.748-24.112-7.62-35.511 2.659 6.191 4.842 12.851 6.175 19.698 1.34 6.84 1.897 13.838 1.58 20.57-.015-.788.018-1.575-.028-2.366l-.107-2.391c.287 10.85-1.384 21.604-4.696 31.717-1.662 5.056-3.715 9.969-6.2 14.644a95.521 95.521 0 0 1-8.56 13.316c3.673-4.29 7.551-10.354 10.646-17.015 3.081-6.675 5.368-13.894 6.941-20.199-2.314 11.322-6.907 22.494-13.571 32.471-6.646 9.985-15.351 18.764-25.423 25.502-10.06 6.759-21.474 11.437-33.187 13.748a94.608 94.608 0 0 1-17.657 1.809 94.462 94.462 0 0 1-17.361-1.515l3.005.571c1.002.19 2.018.295 3.026.445 2.016.324 4.055.446 6.087.633 4.073.229 8.168.306 12.25-.005 4.089-.217 8.152-.827 12.196-1.572 2.006-.456 4.036-.829 6.017-1.414.994-.278 2-.521 2.987-.83l2.955-.958c-1.492.462-3.062 1.074-4.739 1.523l-2.101.618a91.772 91.772 0 0 0 12.91-4.496 89.46 89.46 0 0 0 5.651-2.705 96.653 96.653 0 0 1-10.714 4.872 98.407 98.407 0 0 1-21.66 5.382c-1.11.176-2.122.231-3.029.326l-2.428.24c-1.429.113-2.484.164-3.222.245-1.477.147-1.687.284-1.099.397.587.113 1.971.203 3.673.251 1.697-.01 3.71-.101 5.541-.268 18.397-1.887 35.288-9.107 48.824-19.916 13.545-10.811 23.919-25.172 29.701-41.467.363-.946.642-1.922.944-2.89.293-.971.617-1.932.882-2.912.491-1.97 1.072-3.917 1.448-5.917l.619-2.985.487-3.012.241-1.507.172-1.517.342-3.034c.698-8.114.422-16.315-.812-24.363-.66-4.554-1.82-9.961-3.315-14.777l-1.15-3.484c-.4-1.107-.825-2.151-1.203-3.133l-.557-1.415-.571-1.271-.981-2.124c-3.134-6.359-7.072-12.424-11.682-18.065-4.605-5.643-9.896-10.868-15.861-15.418l-2.244-1.703-2.327-1.608-1.166-.806-1.203-.756-2.417-1.508c-3.295-1.904-6.67-3.739-10.228-5.261-3.521-1.598-7.206-2.895-10.957-4.055-1.895-.52-3.781-1.1-5.724-1.499-.968-.209-1.928-.463-2.907-.638l-2.944-.521C100.363.01 93.04-.285 85.724.265 78.412.83 71.069 2.218 64.028 4.614l-2.635.913c-.881.297-1.73.682-2.597 1.019-.858.359-1.735.673-2.577 1.069l-2.532 1.173c-.852.376-1.675.808-2.496 1.245l-2.469 1.297-2.402 1.412c-.8.472-1.606.933-2.372 1.458l-2.324 1.528c-.782.497-1.506 1.078-2.261 1.612-.741.554-1.51 1.07-2.226 1.654l-2.157 1.737c-.729.565-1.417 1.178-2.103 1.792l-2.063 1.83-1.971 1.919c-.656.639-1.319 1.271-1.93 1.951-5.031 5.298-9.451 11.078-13.066 17.194A99.518 99.518 0 0 0 5.18 64.379C.805 77.299-.45 90.402.134 102.237c-.126-4.872-.147-11.859.753-18.755zm141.132 90.446a96.807 96.807 0 0 0 8.765-6.389c-2.84 2.339-5.758 4.499-8.765 6.389zm40.217-54.282c-.299.901-.552 1.791-.882 2.641l-.957 2.523-.466 1.248-.513 1.231a108.54 108.54 0 0 0-.997 2.501 97.307 97.307 0 0 1-6.587 13.35c-2.521 4.275-5.443 8.281-8.565 12.04-1.542 1.899-3.222 3.66-4.874 5.421l-2.581 2.523c-.847.848-1.774 1.604-2.652 2.404-.736.64-1.478 1.266-2.225 1.882a90.696 90.696 0 0 0 7.896-7.312 89.808 89.808 0 0 1-11.689 10.188c-1.036.722-2.037 1.496-3.113 2.176l-3.247 2.069-3.43 1.949c-1.167.648-2.399 1.224-3.634 1.855a74.206 74.206 0 0 1 2.685-1.508c1.021-.567 2.092-1.237 3.138-1.85 1.054-.601 2.012-1.261 2.808-1.813.796-.552 1.42-1.01 1.745-1.306-.464.315-.936.617-1.406.924a92.477 92.477 0 0 0 1.507-1.015c-.021.023-.065.059-.101.091 10.932-7.466 20.245-17.277 27.223-28.462 7.009-11.175 11.57-23.781 13.46-36.601-.41 5.142-1.352 9.248-2.543 12.851zm-6.654-65.352zm-8.448-12.698a92.37 92.37 0 0 1 7.773 14.352c.25.549.486 1.106.719 1.664 4.963 12.154 7.221 25.192 6.89 38.036.084-4.25-.198-8.498-.669-12.71-.533-4.854-1.518-9.65-2.824-14.341-2.562-9.407-6.723-18.323-12.005-26.451.485.67.996 1.396 1.525 2.166a32.826 32.826 0 0 1 1.59 2.463l-.638-1.109-.689-1.079-1.378-2.156c-.938-1.424-1.955-2.796-2.934-4.192-1.062-1.334-2.069-2.712-3.174-4.011-.836-.953-1.637-1.938-2.485-2.879 2.992 3.155 5.801 6.54 8.299 10.247zM96.886 1.152c1.467.078 2.937.221 4.407.331 1.204.101 2.402.279 3.588.413.356.015.732.039 1.204.092.471.065 1.034.186 1.769.354 5.469.912 10.459 2.283 14.001 3.699 6.798 2.573 13.123 5.774 18.86 9.471 5.739 3.69 10.889 7.887 15.246 12.471 2.008 2.179 1.422 1.704.315.646l1.662 1.764c-.736-.734-1.459-1.478-2.206-2.196l-2.301-2.09c.56.49 1.918 1.663 2.845 2.522-7.389-7.539-16.026-13.799-25.375-18.404-9.356-4.603-19.431-7.446-29.502-8.581 1.618.18 2.412.22 3.168.24-1.085-.127-2.173-.301-3.274-.401-1.479-.097-2.955-.229-4.423-.301l-4.36-.103c1.444-.001 2.907.039 4.376.073z"/><path xmlns="http://www.w3.org/2000/svg" d="M115.942 184.69l.426-.125c-.446.12-.885.252-1.334.366.304-.076.609-.15.908-.241zM160.424 146.151c4.235-5.587 7.977-12.263 10.366-18.014l-.029.006c-6.061 14.322-15.892 26.66-28.16 35.744a159.12 159.12 0 0 0 6.418-4.703c2.698-2.82 7.213-7.406 11.405-13.033zM35.35 162.846c7.172 6.412 15.821 11.992 25.448 15.751 3.754 1.413 7.585 2.651 11.503 3.523 1.944.502 3.929.812 5.899 1.181.987.175 1.987.272 2.979.412.994.129 1.986.275 2.987.333-4.519-.501-9.005-1.251-13.372-2.44-4.364-1.185-8.642-2.65-12.769-4.449a97.4 97.4 0 0 1-11.894-6.314c-3.786-2.408-7.376-5.097-10.781-7.997zM123.877 174.277l-2.219.871-2.266.756c-1.5.54-3.047.944-4.59 1.373 1.551-.39 3.111-.754 4.624-1.254l2.283-.698 2.23-.815c-.086-.044-.594.055-.062-.233zM97.683 179.965c-1.16.099-2.326.09-3.494.102-1.168.014-2.338.039-3.509-.038l1.576.148c.482.031.916.068 1.295.113 1.381-.118 2.752-.151 4.132-.325zM51.441 169.209c1.341.787 2.765 1.48 4.178 2.244.354.194.996.415 1.801.709-1.721-.739-3.37-1.655-5.046-2.505-.83-.441-1.629-.935-2.443-1.395-.812-.464-1.621-.927-2.389-1.445l.937.626.977.584 1.985 1.182z"/></g><g id="SvgjsG2179" featureKey="symbolFeature-0" transform="matrix(1.5625,0,0,1.5625,100,72)" fill="#000"><path xmlns="http://www.w3.org/2000/svg" d="M58.476,25.938l1.82-1.82c1.167-1.167,1.167-3.067,0-4.234l-4.18-4.18c-1.167-1.168-3.067-1.168-4.234,0l-2.148,2.148  c-1.37-0.409-2.943-0.756-4.735-1.032V6c0-1.067-0.417-2.071-1.173-2.827S42.067,2,41,2c-2.206,0-4,1.794-4,4v4.556  C36.409,10.212,35.732,10,35,10c-1.2,0-2.266,0.542-3,1.382C31.266,10.542,30.2,10,29,10c-0.732,0-1.409,0.212-2,0.556V4  c0-1.067-0.417-2.071-1.173-2.827S24.067,0,23,0c-2.206,0-4,1.794-4,4v12.82c-1.793,0.276-3.366,0.623-4.735,1.032l-2.148-2.148  c-1.167-1.168-3.067-1.168-4.234,0l-4.18,4.18c-1.167,1.167-1.167,3.067,0,4.234l1.821,1.821C1.39,35.251,0,51.39,0,55  c0,7.119,5.887,9,9,9c0.421,0,0.797-0.264,0.94-0.66c0.012-0.034,1.098-3.026,2.51-6.476L14,58.414V63c0,0.552,0.448,1,1,1h29  c0.552,0,1-0.448,1-1V45.956c0.514,0.254,0.985,0.535,1.399,0.844c1.669,1.253,5.584,10.811,7.66,16.541  C54.203,63.736,54.579,64,55,64c3.113,0,9-1.881,9-9C64,51.389,62.609,35.247,58.476,25.938z M53.297,17.117  c0.388-0.388,1.019-0.388,1.406,0l4.18,4.18c0.388,0.388,0.388,1.019,0,1.406l-1.342,1.342c-0.891-1.633-1.857-2.921-2.889-3.805  c-0.725-0.621-1.678-1.172-2.824-1.654L53.297,17.117z M29,26c1.2,0,2.266-0.542,3-1.382C32.734,25.458,33.8,26,35,26  c2.206,0,4-1.794,4-4v-3.795c2.737,0.177,5.151,0.46,7.208,0.852L39.5,28h-15l-6.708-8.943c2.056-0.391,4.47-0.675,7.208-0.852V22  C25,24.206,26.794,26,29,26z M39,6c0-1.103,0.897-2,2-2c0.533,0,1.035,0.208,1.413,0.587S43,5.467,43,6v10.554  c-1.249-0.146-2.585-0.263-4-0.353V14V6z M35,12c1.103,0,2,0.897,2,2v3.14V22c0,1.103-0.897,2-2,2s-2-0.897-2-2v-8  C33,12.897,33.897,12,35,12z M29,12c1.103,0,2,0.897,2,2v8c0,1.103-0.897,2-2,2s-2-0.897-2-2v-4.86V14C27,12.897,27.897,12,29,12z   M21,4c0-1.103,0.897-2,2-2c0.533,0,1.035,0.208,1.413,0.587S25,3.467,25,4v10v2.201c-1.415,0.09-2.751,0.207-4,0.353V4z   M5.117,21.297l4.18-4.18c0.388-0.388,1.019-0.388,1.406,0l1.47,1.47c-1.147,0.482-2.099,1.033-2.823,1.653  c-1.034,0.885-2,2.173-2.89,3.805l-1.343-1.343C4.729,22.315,4.729,21.685,5.117,21.297z M16,62v-4c0-0.265-0.105-0.52-0.293-0.707  l-4.17-4.17c-0.565-0.566-0.877-1.32-0.877-2.123s0.312-1.557,0.877-2.123l7.406-7.406c0.587,0.817,0.954,1.76,1.075,2.777  c0.241,1.869-0.387,3.707-1.725,5.045l-1,1c-0.286,0.286-0.372,0.716-0.217,1.09C17.231,51.756,17.596,52,18,52c2.206,0,4,1.794,4,4  v1h2v-1c0-2.593-1.654-4.808-3.962-5.644c1.222-1.373,1.914-3.088,2.011-4.886C22.628,45.797,23.288,46,24,46  c1.427,0,2.673-0.757,3.381-1.885C29.124,44.006,30.771,44,32,44s2.876,0.006,4.619,0.115C37.327,45.243,38.573,46,40,46  c0.976,0,1.859-0.365,2.555-0.948c0.152,0.042,0.299,0.09,0.445,0.137V62H16z M22,42c0-1.103,0.897-2,2-2s2,0.897,2,2s-0.897,2-2,2  S22,43.103,22,42z M38,42c0-1.103,0.897-2,2-2s2,0.897,2,2s-0.897,2-2,2S38,43.103,38,42z M55.682,61.952  c-1.349-3.664-5.636-14.916-8.083-16.753c-0.914-0.683-2.013-1.252-3.242-1.683c-0.19-0.073-0.394-0.138-0.596-0.204  C43.906,42.899,44,42.462,44,42c0-2.206-1.794-4-4-4s-4,1.794-4,4c0,0.026,0.007,0.05,0.008,0.076C34.486,42.003,33.084,42,32,42  s-2.486,0.003-4.008,0.076C27.993,42.05,28,42.026,28,42c0-2.206-1.794-4-4-4c-1.546,0-2.875,0.891-3.541,2.179  c-0.231-0.308-0.474-0.608-0.752-0.886c-0.391-0.391-1.023-0.391-1.414,0l-8.17,8.17c-1.951,1.95-1.951,5.124,0,7.074l0.797,0.797  c-1.158,2.787-2.149,5.405-2.599,6.618C6.551,61.746,2,60.666,2,55c0-3.6,1.406-19.963,5.625-28.854  c0.937-1.995,1.955-3.47,3.025-4.386c0.817-0.701,2.041-1.315,3.641-1.829c0.425-0.139,0.885-0.269,1.361-0.394L23.2,29.6  c0.188,0.251,0.485,0.4,0.8,0.4h16c0.315,0,0.611-0.148,0.8-0.4l7.548-10.063c0.478,0.125,0.94,0.255,1.367,0.395  c1.594,0.512,2.817,1.126,3.635,1.828c1.07,0.916,2.088,2.391,3.027,4.389C60.594,35.037,62,51.4,62,55  C62,60.665,57.45,61.746,55.682,61.952z"/><path xmlns="http://www.w3.org/2000/svg" d="M21,29h-2v-2c0-0.552-0.448-1-1-1h-4c-0.552,0-1,0.448-1,1v2h-2c-0.552,0-1,0.448-1,1v4c0,0.552,0.448,1,1,1h2v2  c0,0.552,0.448,1,1,1h4c0.552,0,1-0.448,1-1v-2h2c0.552,0,1-0.448,1-1v-4C22,29.448,21.552,29,21,29z M15,28h2v1.586l-1,1l-1-1V28z   M12,31h1.586l1,1l-1,1H12V31z M17,36h-2v-1.586l1-1l1,1V36z M20,33h-1.586l-1-1l1-1H20V33z"/><path xmlns="http://www.w3.org/2000/svg" d="M47,32c0-1.654-1.346-3-3-3s-3,1.346-3,3s1.346,3,3,3S47,33.654,47,32z M44,33c-0.551,0-1-0.449-1-1s0.449-1,1-1  s1,0.449,1,1S44.551,33,44,33z"/><path xmlns="http://www.w3.org/2000/svg" d="M49,30c1.654,0,3-1.346,3-3s-1.346-3-3-3s-3,1.346-3,3S47.346,30,49,30z M49,26c0.551,0,1,0.449,1,1s-0.449,1-1,1  s-1-0.449-1-1S48.449,26,49,26z"/><path xmlns="http://www.w3.org/2000/svg" d="M49,34c-1.654,0-3,1.346-3,3s1.346,3,3,3s3-1.346,3-3S50.654,34,49,34z M49,38c-0.551,0-1-0.449-1-1s0.449-1,1-1  s1,0.449,1,1S49.551,38,49,38z"/><path xmlns="http://www.w3.org/2000/svg" d="M54,29c-1.654,0-3,1.346-3,3s1.346,3,3,3s3-1.346,3-3S55.654,29,54,29z M54,33c-0.551,0-1-0.449-1-1s0.449-1,1-1  s1,0.449,1,1S54.551,33,54,33z"/><rect xmlns="http://www.w3.org/2000/svg" x="26" y="34" width="4" height="2"/><rect xmlns="http://www.w3.org/2000/svg" x="34" y="34" width="4" height="2"/></g><g id="SvgjsG2180" featureKey="nameFeature-0" transform="matrix(0.8983438703959122,0,0,0.8983438703959122,57.14357661035294,181.9765643912259)" fill="#000"><path d="M15.76 13.68 c-0.90668 -0.02668 -1.8399 -0.0067968 -2.7999 0.059884 s-1.9067 0.15336 -2.84 0.26004 s-1.84 0.22668 -2.72 0.36 s-1.68 0.25332 -2.4 0.36 c0.08 2.0267 0.16 4.04 0.24 6.04 s0.18 4.02 0.3 6.06 s0.26668 4.1132 0.44 6.22 s0.39332 4.2932 0.66 6.56 c0 0.10668 -0.09332 0.2 -0.28 0.28 s-0.38668 0.12 -0.6 0.12 s-0.42 -0.03332 -0.62 -0.1 s-0.32668 -0.20668 -0.38 -0.42 c-0.10668 -1.28 -0.2 -2.72 -0.28 -4.32 s-0.16 -3.2333 -0.24 -4.9 s-0.16668 -3.32 -0.26 -4.96 s-0.19332 -3.1533 -0.3 -4.54 s-0.22 -2.5867 -0.34 -3.6 s-0.24668 -1.7333 -0.38 -2.16 c-1.5467 0 -3.18 0.09332 -4.9 0.28 s-3.38 0.37336 -4.98 0.56004 c-0.26668 0.05332 -0.49336 0.04 -0.68004 -0.04 s-0.3 -0.18668 -0.34 -0.32 s0.02 -0.28 0.18 -0.44 s0.46668 -0.32 0.92 -0.48 c1.92 -0.34668 3.7733 -0.63336 5.56 -0.86004 s3.5467 -0.42668 5.28 -0.6 s3.48 -0.34664 5.24 -0.51996 s3.5733 -0.39332 5.44 -0.66 c0.13332 0 0.28664 0.07332 0.45996 0.22 s0.32 0.32 0.44 0.52 s0.20668 0.4 0.26 0.6 s0.026641 0.34 -0.08004 0.42 z M11.760000000000002 11.2 c0.02668 0.08 0.0534 0.42 0.080076 1.02 s0.04668 1.3667 0.06 2.3 s0.02 1.9933 0.02 3.18 s0.0066796 2.4067 0.02 3.66 s0.02 2.4933 0.02 3.72 l0 3.38 l0 2.6 l0 1.42 c0.29332 -1.3067 0.71332 -2.3867 1.26 -3.24 s1.0467 -1.3066 1.5 -1.36 c0.53332 -0.10668 0.94 0.0066408 1.22 0.33996 s0.50668 0.78664 0.68 1.36 s0.34664 1.2133 0.51996 1.92 s0.40664 1.38 0.69996 2.02 s0.69332 1.2067 1.2 1.7 s1.2 0.79332 2.08 0.9 c-0.69332 0.58668 -1.3133 0.85336 -1.86 0.80004 s-1.0334 -0.29332 -1.46 -0.72 s-0.8 -0.97336 -1.12 -1.64 s-0.58668 -1.32 -0.8 -1.96 s-0.38664 -1.2 -0.51996 -1.68 s-0.22664 -0.76 -0.27996 -0.84 c-0.16 -0.21332 -0.33332 -0.22664 -0.52 -0.039961 s-0.38 0.48 -0.58 0.88 s-0.38668 0.86 -0.56 1.38 s-0.32664 1.0133 -0.45996 1.48 s-0.24 0.86 -0.32 1.18 s-0.12 0.46668 -0.12 0.44 c-0.08 0.34668 -0.14668 0.8 -0.2 1.36 s-0.08664 1.1133 -0.09996 1.66 s-0.01332 1.04 0 1.48 s0.04664 0.71332 0.09996 0.82 c-0.18668 0 -0.45336 -0.06 -0.80004 -0.18 s-0.61336 -0.18 -0.80004 -0.18 l0 -3.14 l0 -4.32 l-0.02 -5.1 l-0.08 -5.5 l-0.14 -5.52 l-0.24 -5.18 c0 -0.05332 0.16 -0.15332 0.48 -0.3 s0.66668 -0.18 1.04 -0.1 z M24.040000000000006 28.68 c0.08 -0.02668 0.30668 -0.10016 0.68 -0.22016 s0.68 -0.14 0.92 -0.06 c0.77332 -0.02668 1.3666 0.17332 1.78 0.6 s0.44664 1.2534 0.09996 2.48 c-0.50668 1.36 -1.18 2.4933 -2.02 3.4 s-1.8333 1.7734 -2.98 2.6 c0.26668 0.69332 0.66668 1.08 1.2 1.16 s1.0933 -0.0066796 1.68 -0.26 s1.16 -0.59332 1.72 -1.02 s1.0133 -0.8 1.36 -1.12 c0.56 -0.48 1.0067 -0.88668 1.34 -1.22 s0.68664 -0.74 1.06 -1.22 c0.08 -0.05332 0.12668 -0.04664 0.14 0.020039 s0.0066408 0.16668 -0.020039 0.3 s-0.06668 0.32 -0.12 0.56 c-0.08 0.18668 -0.16 0.35336 -0.24 0.50004 s-0.19332 0.30668 -0.34 0.48 s-0.34 0.38 -0.58 0.62 s-0.53332 0.56 -0.88 0.96 c-0.4 0.37332 -0.78668 0.74 -1.16 1.1 s-0.76664 0.67332 -1.18 0.94 s-0.86664 0.45336 -1.36 0.56004 s-1.06 0.10668 -1.7 0 c-0.53332 -0.18668 -0.96 -0.38668 -1.28 -0.6 s-0.56668 -0.43332 -0.74 -0.66 s-0.3 -0.43336 -0.38 -0.62004 s-0.13332 -0.34668 -0.16 -0.48 c-0.13332 -0.53332 -0.18664 -1.2533 -0.15996 -2.16 s0.29336 -2.08 0.80004 -3.52 c0.34668 -0.74668 0.72 -1.38 1.12 -1.9 s0.86668 -0.92668 1.4 -1.22 z M22.280000000000005 35.76 c0.34668 -0.18668 0.75312 -0.44672 1.2198 -0.78004 s0.90668 -0.72 1.32 -1.16 s0.77332 -0.92668 1.08 -1.46 s0.47336 -1.0933 0.50004 -1.68 c0.08 -0.4 0.06668 -0.68 -0.04 -0.84 c-0.05332 -0.08 -0.10664 -0.12 -0.15996 -0.12 c-0.45332 -0.21332 -0.90664 -0.14664 -1.36 0.20004 s-0.86664 0.84 -1.24 1.48 s-0.68664 1.3533 -0.93996 2.14 s-0.38 1.5267 -0.38 2.22 z M52.6 13.68 c-0.90668 -0.02668 -1.8399 -0.0067968 -2.7999 0.059884 s-1.9067 0.15336 -2.84 0.26004 s-1.84 0.22668 -2.72 0.36 s-1.68 0.25332 -2.4 0.36 c0.08 2.0267 0.16 4.04 0.24 6.04 s0.18 4.02 0.3 6.06 s0.26668 4.1132 0.44 6.22 s0.39332 4.2932 0.66 6.56 c0 0.10668 -0.09332 0.2 -0.28 0.28 s-0.38668 0.12 -0.6 0.12 s-0.42 -0.03332 -0.62 -0.1 s-0.32668 -0.20668 -0.38 -0.42 c-0.10668 -1.28 -0.2 -2.72 -0.28 -4.32 s-0.16 -3.2333 -0.24 -4.9 s-0.16668 -3.32 -0.26 -4.96 s-0.19332 -3.1533 -0.3 -4.54 s-0.22 -2.5867 -0.34 -3.6 s-0.24668 -1.7333 -0.38 -2.16 c-1.5467 0 -3.18 0.09332 -4.9 0.28 s-3.38 0.37336 -4.98 0.56004 c-0.26668 0.05332 -0.49336 0.04 -0.68004 -0.04 s-0.3 -0.18668 -0.34 -0.32 s0.02 -0.28 0.18 -0.44 s0.46668 -0.32 0.92 -0.48 c1.92 -0.34668 3.7733 -0.63336 5.56 -0.86004 s3.5467 -0.42668 5.28 -0.6 s3.48 -0.34664 5.24 -0.51996 s3.5733 -0.39332 5.44 -0.66 c0.13332 0 0.28664 0.07332 0.45996 0.22 s0.32 0.32 0.44 0.52 s0.20668 0.4 0.26 0.6 s0.026641 0.34 -0.08004 0.42 z M47.28 27.36 c-0.02668 -0.24 0.099804 -0.30016 0.3798 -0.18016 s0.56668 0.24668 0.86 0.38 c0.10668 0.61332 0.18668 1.1 0.24 1.46 s0.09332 0.7 0.12 1.02 s0.05336 0.66668 0.08004 1.04 s0.06668 0.86664 0.12 1.48 c0.24 -0.61332 0.53332 -1.18 0.88 -1.7 s0.79336 -0.96668 1.34 -1.34 s1.2 -0.64664 1.96 -0.81996 s1.6733 -0.23332 2.74 -0.18 c0 0.21332 -0.07332 0.39332 -0.22 0.54 s-0.48668 0.26 -1.02 0.34 c-0.77332 0.13332 -1.4466 0.39332 -2.02 0.78 s-1.0666 0.83336 -1.48 1.34 s-0.74664 1.0467 -0.99996 1.62 s-0.46 1.1 -0.62 1.58 c-0.02668 0.24 -0.06 0.58 -0.1 1.02 s-0.06668 0.90668 -0.08 1.4 s-0.026641 0.97332 -0.039961 1.44 s0.0066796 0.83336 0.06 1.1 c0.02668 0.13332 -0.03332 0.23332 -0.18 0.3 s-0.31336 0.11336 -0.50004 0.14004 s-0.36 0.013359 -0.52 -0.039961 s-0.24 -0.14664 -0.24 -0.27996 c0.05332 -2.7467 -0.02 -5.1132 -0.22 -7.1 s-0.38 -3.7667 -0.54 -5.34 z M63.120000000000005 28.240000000000002 c-0.02668 0.16 -0.0866 0.49324 -0.17992 0.99992 s-0.19332 1.1 -0.3 1.78 s-0.2 1.3933 -0.28 2.14 s-0.12668 1.4534 -0.14 2.12 s0.02668 1.2334 0.12 1.7 s0.24664 0.75336 0.45996 0.86004 c0.61332 0.29332 1.24 0.19332 1.88 -0.3 s1.3867 -1.2466 2.24 -2.26 c0.08 0 0.08668 0.10668 0.02 0.32 s-0.17336 0.44664 -0.32004 0.69996 l-0.44 0.76 l-0.34 0.5 c-0.21332 0.26668 -0.52 0.56668 -0.92 0.9 s-0.82668 0.6 -1.28 0.8 s-0.88664 0.28668 -1.3 0.26 s-0.75332 -0.26668 -1.02 -0.72 c-0.13332 -0.32 -0.21332 -0.71332 -0.24 -1.18 s-0.02668 -0.94 0 -1.42 s0.06668 -0.92 0.12 -1.32 s0.09332 -0.69332 0.12 -0.88 c-0.56 1.04 -1.2 2.0267 -1.92 2.96 s-1.4267 1.6666 -2.12 2.2 s-1.3333 0.82 -1.92 0.86 s-1.04 -0.3 -1.36 -1.02 c-0.18668 -0.69332 -0.18668 -1.4733 0 -2.34 s0.46668 -1.6467 0.84 -2.34 c0.56 -0.96 1.1467 -1.84 1.76 -2.64 s1.2666 -1.48 1.96 -2.04 s1.42 -0.96668 2.18 -1.22 s1.5533 -0.31332 2.38 -0.18 z M55.600100000000005 38.3999 c0.26668 0.05332 0.69332 -0.14672 1.28 -0.60004 s1.2 -1.0866 1.84 -1.9 s1.22 -1.76 1.74 -2.84 s0.86 -2.22 1.02 -3.42 l-0.46 0 l-0.7 0.24 c-1.0133 0.66668 -1.88 1.4467 -2.6 2.34 s-1.28 1.76 -1.68 2.6 s-0.64 1.5933 -0.72 2.26 s0.01332 1.1067 0.28 1.32 z M72.92000000000002 28.28 c0.02668 0.16 -0.099924 0.31992 -0.37992 0.47992 s-0.63332 0.39332 -1.06 0.7 s-0.89336 0.71336 -1.4 1.22 s-0.96 1.1734 -1.36 2 c-0.42668 0.90668 -0.73336 1.6934 -0.92004 2.36 s-0.14668 1.4534 0.12 2.36 c0.08 0.18668 0.19332 0.35336 0.34 0.50004 s0.36668 0.23336 0.66 0.26004 c0.58668 -0.10668 1.1067 -0.25336 1.56 -0.44004 s0.88 -0.41336 1.28 -0.68004 s0.78668 -0.55336 1.16 -0.86004 s0.76 -0.62 1.16 -0.94 c0.58668 -0.56 1.0734 -1.0467 1.46 -1.46 s0.7 -0.76 0.94 -1.04 s0.44668 -0.48668 0.62 -0.62 s0.35332 -0.17332 0.54 -0.12 c-0.10668 0.24 -0.40668 0.74668 -0.9 1.52 s-1.1333 1.5933 -1.92 2.46 s-1.7 1.68 -2.74 2.44 s-2.16 1.2333 -3.36 1.42 c-0.48 -0.02668 -0.87332 -0.08 -1.18 -0.16 s-0.59336 -0.4 -0.86004 -0.96 c-0.32 -0.66668 -0.44 -1.4734 -0.36 -2.42 s0.28 -1.8867 0.6 -2.82 s0.72 -1.8 1.2 -2.6 s0.94668 -1.3867 1.4 -1.76 c0.64 -0.45332 1.2333 -0.73332 1.78 -0.84 s1.0867 -0.10668 1.62 0 z M78.52000000000001 32.16 c0.61332 0.13332 1.1668 0.24016 1.6601 0.32016 s0.98664 0.15332 1.48 0.22 s1.04 0.12668 1.64 0.18 s1.3133 0.12 2.14 0.2 c0.24 0.26668 0.4 0.48668 0.48 0.66 s0.18668 0.44664 0.32 0.81996 c-0.85332 -0.16 -1.6266 -0.28 -2.32 -0.36 s-1.38 -0.14668 -2.06 -0.2 s-1.38 -0.1 -2.1 -0.14 s-1.52 -0.1 -2.4 -0.18 c-0.02668 1.36 0 2.5667 0.08 3.62 s0.08 2.0066 0 2.86 c-0.16 0.02668 -0.28668 0 -0.38 -0.08 s-0.18 -0.17332 -0.26 -0.28 s-0.16668 -0.22 -0.26 -0.34 s-0.22 -0.20668 -0.38 -0.26 c0.08 -3.68 0.06668 -7.0668 -0.04 -10.16 s-0.13336 -6.0532 -0.08004 -8.88 c0 -0.53332 0.0066796 -1.14 0.02 -1.82 s0.02 -1.3467 0.02 -2 s-0.01332 -1.24 -0.04 -1.76 s-0.08 -0.87332 -0.16 -1.06 c0.18668 -0.21332 0.36668 -0.34664 0.54 -0.39996 s0.48664 -0.09332 0.93996 -0.12 c0.05332 3.2533 0.05332 6.4668 0 9.64 s-0.05332 6.1868 0 9.04 c0.45332 -0.34668 0.93332 -0.77336 1.44 -1.28 s0.98 -1 1.42 -1.48 s0.82 -0.9 1.14 -1.26 s0.52 -0.55332 0.6 -0.58 c0.24 0.21332 0.48668 0.39332 0.74 0.54 s0.38 0.20668 0.38 0.18 c-0.66668 0.74668 -1.36 1.54 -2.08 2.38 s-1.5467 1.5 -2.48 1.98 z M88.2 22.4 c0.26668 -0.05332 0.42664 0.10672 0.47996 0.48004 s0 0.65332 -0.16 0.84 c-0.29332 0.24 -0.48 0.44668 -0.56 0.62 s-0.26668 0.28664 -0.56 0.33996 c-0.16 -0.02668 -0.3 -0.033359 -0.42 -0.020039 s-0.22 -0.20668 -0.3 -0.66 c0.10668 -0.29332 0.27336 -0.58664 0.50004 -0.87996 s0.56668 -0.53332 1.02 -0.72 z M88.32000000000001 27.6 c0.13332 1.28 0.22676 2.6867 0.28008 4.22 s0.14664 3.14 0.27996 4.82 c0.10668 0.85332 0.21336 1.52 0.32004 2 s0.18668 0.93332 0.24 1.36 c-0.42668 0.08 -0.76 0.07332 -1 -0.02 s-0.46668 -0.20664 -0.68 -0.33996 c-0.05332 -0.42668 -0.11332 -1.1334 -0.18 -2.12 s-0.13336 -2.06 -0.20004 -3.22 s-0.13336 -2.2867 -0.20004 -3.38 s-0.12668 -1.96 -0.18 -2.6 c0.10668 -0.05332 0.19336 -0.13332 0.26004 -0.24 s0.14 -0.2 0.22 -0.28 s0.18668 -0.14668 0.32 -0.2 s0.30664 -0.05332 0.51996 0 z M93.68 27.8 c0 0.74668 -0.0068752 1.4932 -0.020195 2.2399 s-0.026641 1.4667 -0.039961 2.16 s-0.026641 1.3466 -0.039961 1.96 s-0.03332 1.16 -0.06 1.64 c0 -0.10668 0.06 -0.36668 0.18 -0.78 s0.28668 -0.88664 0.5 -1.42 s0.44664 -1.1 0.69996 -1.7 s0.52664 -1.1333 0.81996 -1.6 s0.59332 -0.83336 0.9 -1.1 s0.59336 -0.34668 0.86004 -0.24 c0.58668 0.26668 1 0.65336 1.24 1.16 s0.41332 1.0867 0.52 1.74 s0.21336 1.38 0.32004 2.18 s0.34668 1.64 0.72 2.52 c0.16 0.4 0.39332 0.69332 0.7 0.88 s0.6 0.32 0.88 0.4 s0.50668 0.12668 0.68 0.14 s0.23332 0.06 0.18 0.14 c-0.66668 0.50668 -1.24 0.68 -1.72 0.52 s-0.88668 -0.51332 -1.22 -1.06 s-0.60664 -1.2 -0.81996 -1.96 s-0.40664 -1.4933 -0.57996 -2.2 s-0.32664 -1.3067 -0.45996 -1.8 s-0.28 -0.74 -0.44 -0.74 c-0.24 0.02668 -0.5 0.25336 -0.78 0.68004 s-0.56668 0.96 -0.86 1.6 s-0.57332 1.34 -0.84 2.1 s-0.51336 1.4733 -0.74004 2.14 s-0.40668 1.24 -0.54 1.72 s-0.21332 0.77332 -0.24 0.88 c-0.4 0 -0.64668 0.01332 -0.74 0.04 s-0.24664 -0.10664 -0.45996 -0.39996 c0.13332 -2.3467 0.18 -4.5668 0.14 -6.66 s-0.1 -3.9133 -0.18 -5.46 c0 -0.24 0.06 -0.36 0.18 -0.36 s0.25332 0.05332 0.4 0.16 s0.3 0.21336 0.46 0.32004 s0.29332 0.16 0.4 0.16 z M114.04 35.64 c0.05332 0.05332 0.046564 0.14684 -0.020117 0.28016 s-0.16 0.28 -0.28 0.44 s-0.24 0.31332 -0.36 0.46 s-0.20668 0.24668 -0.26 0.3 c-0.64 0.72 -1.2133 1.34 -1.72 1.86 s-0.92 0.96668 -1.24 1.34 c0 0.02668 -0.0066796 0.18 -0.02 0.46 s-0.02 0.43332 -0.02 0.46 c-0.05332 0.90668 -0.07332 1.82 -0.06 2.74 s-0.04668 1.8467 -0.18 2.78 c-0.16 1.0667 -0.32668 1.9267 -0.5 2.58 s-0.35332 1.1866 -0.54 1.6 s-0.38 0.76 -0.58 1.04 s-0.42 0.59332 -0.66 0.94 c-0.21332 0.29332 -0.45332 0.54664 -0.72 0.75996 s-0.62668 0.46664 -1.08 0.75996 c-0.61332 0.37332 -1.2533 0.65332 -1.92 0.84 s-1.28 0.22 -1.84 0.1 s-1.0333 -0.42 -1.42 -0.9 s-0.60668 -1.2 -0.66 -2.16 c-0.05332 -1.0667 0.13336 -2.12 0.56004 -3.16 s0.93336 -1.9867 1.52 -2.84 s1.16 -1.5733 1.72 -2.16 s0.94668 -0.98668 1.16 -1.2 c0.34668 -0.37332 0.66 -0.69332 0.94 -0.96 s0.56668 -0.51336 0.86 -0.74004 s0.60664 -0.47336 0.93996 -0.74004 s0.72664 -0.58668 1.18 -0.96 c0.10668 -0.64 0.17336 -1.3133 0.20004 -2.02 s0.02668 -1.4334 0 -2.18 c-0.48 0.98668 -0.99332 1.76 -1.54 2.32 s-1.04 0.98 -1.48 1.26 s-0.8 0.45332 -1.08 0.52 s-0.39332 0.1 -0.34 0.1 c-0.50668 0.08 -0.91336 0.1 -1.22 0.06 s-0.54668 -0.12 -0.72 -0.24 s-0.30664 -0.26 -0.39996 -0.42 s-0.16664 -0.32 -0.21996 -0.48 c-0.13332 -0.69332 -0.12664 -1.4066 0.020039 -2.14 s0.36668 -1.4333 0.66 -2.1 s0.61332 -1.28 0.96 -1.84 s0.66668 -1.0133 0.96 -1.36 c0.05332 -0.05332 0.18 -0.19332 0.38 -0.42 s0.46 -0.48 0.78 -0.76 s0.71332 -0.56668 1.18 -0.86 s1.0067 -0.56 1.62 -0.8 c0.61332 -0.13332 1.24 -0.19332 1.88 -0.18 s1.16 0.16664 1.56 0.45996 c-0.21332 0.08 -0.54 0.18 -0.98 0.3 s-0.72668 0.20668 -0.86 0.26 l0 0.08 c0 0.08 0.02668 0.12 0.08 0.12 c-0.45332 -0.10668 -1.16 0.08 -2.12 0.56 s-2 1.4 -3.12 2.76 c-0.50668 0.72 -0.89336 1.3667 -1.16 1.94 s-0.46 1.0666 -0.58 1.48 s-0.18 0.76664 -0.18 1.06 s0.01332 0.52 0.04 0.68 c0.02668 0.10668 0.12 0.2 0.28 0.28 s0.36 0.09332 0.6 0.04 c0.69332 -0.16 1.34 -0.51332 1.94 -1.06 s1.1467 -1.1667 1.64 -1.86 s0.91332 -1.3733 1.26 -2.04 s0.6 -1.2 0.76 -1.6 c0.26668 -0.61332 0.40668 -1.18 0.42 -1.7 s-0.0066796 -0.78 -0.06 -0.78 l0.06 0 l0.1 0 l0.02 0.02 l-0.26 0.06 c0.05332 -0.05332 0.10664 -0.08664 0.15996 -0.09996 s0.10664 -0.03332 0.15996 -0.06 c-0.02668 -0.02668 -0.02 -0.06 0.02 -0.1 s0.08668 -0.06 0.14 -0.06 c0 -0.05332 0.06668 -0.10664 0.2 -0.15996 l0.24 -0.08 l0.12 -0.08 c0.10668 -0.05332 0.17336 -0.09332 0.20004 -0.12 s0.06 -0.04 0.1 -0.04 s0.11332 0.02 0.22 0.06 s0.29336 0.1 0.56004 0.18 c-0.24 0.64 -0.44668 1.42 -0.62 2.34 s-0.32664 1.8467 -0.45996 2.78 s-0.24664 1.82 -0.33996 2.66 s-0.18 1.5 -0.26 1.98 c0.21332 -0.21332 0.52664 -0.46664 0.93996 -0.75996 s0.82 -0.58664 1.22 -0.87996 c0.48 -0.32 0.98668 -0.65332 1.52 -1 z M109.00000000000001 42.5602 c0.08 -0.61332 0.0666 -0.98656 -0.040076 -1.1199 c-0.05332 -0.08 -0.12 -0.10668 -0.2 -0.08 c-0.72 0.58668 -1.3067 1.08 -1.76 1.48 s-0.76 0.66668 -0.92 0.8 c-1.28 1.2 -2.2333 2.26 -2.86 3.18 s-1.0467 1.7667 -1.26 2.54 c-0.29332 0.85332 -0.46 1.6066 -0.5 2.26 s0.12668 1.2866 0.5 1.9 c0.66668 0.50668 1.3934 0.60668 2.18 0.3 s1.5134 -0.78 2.18 -1.42 c0.77332 -0.88 1.4 -2.1133 1.88 -3.7 s0.74668 -3.6334 0.8 -6.14 z M124.04000000000002 12.96 c0.08 -0.05332 0.17328 -0.026797 0.27996 0.079884 c0.08 0.08 0.16 0.24 0.24 0.48 s0.16 0.58668 0.24 1.04 c0.8 -0.16 1.5067 -0.30668 2.12 -0.44 s1.2 -0.26664 1.76 -0.39996 s1.1333 -0.27332 1.72 -0.42 s1.2667 -0.3 2.04 -0.46 c0.48 -0.05332 0.85332 -0.11332 1.12 -0.18 s0.47336 -0.12 0.62004 -0.16 s0.25336 -0.07332 0.32004 -0.1 s0.14 -0.02668 0.22 0 c0.05332 0.24 0.09332 0.41332 0.12 0.52 s0.033359 0.18668 0.020039 0.24 s-0.04 0.10664 -0.08 0.15996 l-0.18 0.24 c-0.34668 0.13332 -0.84668 0.30664 -1.5 0.51996 s-1.3666 0.43332 -2.14 0.66 s-1.5533 0.45336 -2.34 0.68004 s-1.5 0.40668 -2.14 0.54 c-0.10668 0.02668 -0.24 0.06668 -0.4 0.12 l-0.48 0.16 c-0.18668 0.08 -0.38668 0.14668 -0.6 0.2 c0.02668 0.48 0.04 0.80668 0.04 0.98 s-0.0066796 0.36664 -0.02 0.57996 s-0.026641 0.54 -0.039961 0.98 s0.0066796 1.18 0.06 2.22 c-0.02668 0.10668 -0.033359 0.33336 -0.020039 0.68004 s0.03332 0.72 0.06 1.12 c0.02668 0.48 0.06668 1 0.12 1.56 c0.48 -0.08 0.94 -0.21332 1.38 -0.4 s0.94 -0.4 1.5 -0.64 s1.22 -0.5 1.98 -0.78 s1.7 -0.55332 2.82 -0.82 c0.16 0.16 0.13332 0.33332 -0.08 0.52 s-0.52664 0.38668 -0.93996 0.6 s-0.88 0.44 -1.4 0.68 s-1.0067 0.49332 -1.46 0.76 c-0.58668 0.24 -1.0734 0.46 -1.46 0.66 s-0.70668 0.37332 -0.96 0.52 s-0.47332 0.25336 -0.66 0.32004 s-0.37336 0.1 -0.56004 0.1 c0 0.26668 0.01332 0.74668 0.04 1.44 s0.06 1.4933 0.1 2.4 s0.08 1.8734 0.12 2.9 s0.08668 2 0.14 2.92 s0.10664 1.7533 0.15996 2.5 s0.10664 1.2934 0.15996 1.64 c-0.26668 0.05332 -0.55336 0.09332 -0.86004 0.12 s-0.62 0.04 -0.94 0.04 l0 -2.4 c0 -1.84 -0.03332 -3.6467 -0.1 -5.42 s-0.16668 -3.6333 -0.3 -5.58 l-0.78 0.3 l-0.42 0.14 l-0.34 0.02 l-0.54 -0.1 c0.05332 -0.21332 0.0066408 -0.32 -0.14004 -0.32 s-0.22 -0.08 -0.22 -0.24 c0.08 -0.24 0.21332 -0.42 0.4 -0.54 s0.39336 -0.21332 0.62004 -0.28 s0.45336 -0.14 0.68004 -0.22 s0.42 -0.21332 0.58 -0.4 c-0.02668 -1.0133 -0.05336 -1.88 -0.08004 -2.6 s-0.04668 -1.3667 -0.06 -1.94 s-0.04 -1.1333 -0.08 -1.68 s-0.07332 -1.14 -0.1 -1.78 c-0.26668 0.10668 -0.50668 0.15336 -0.72 0.14004 s-0.38664 -0.1 -0.51996 -0.26 c-0.18668 -0.21332 -0.28 -0.45332 -0.28 -0.72 s0.01332 -0.44 0.04 -0.52 c-0.02668 -0.02668 0.03332 -0.08 0.18 -0.16 s0.3 -0.16 0.46 -0.24 c0.18668 -0.10668 0.41336 -0.21336 0.68004 -0.32004 c-0.02668 -0.34668 -0.013359 -0.66668 0.039961 -0.96 c0.05332 -0.24 0.13332 -0.46668 0.24 -0.68 s0.28 -0.32 0.52 -0.32 z M133.44 28.68 c0.08 -0.02668 0.30668 -0.10016 0.68 -0.22016 s0.68 -0.14 0.92 -0.06 c0.77332 -0.02668 1.3666 0.17332 1.78 0.6 s0.44664 1.2534 0.09996 2.48 c-0.50668 1.36 -1.18 2.4933 -2.02 3.4 s-1.8333 1.7734 -2.98 2.6 c0.26668 0.69332 0.66668 1.08 1.2 1.16 s1.0933 -0.0066796 1.68 -0.26 s1.16 -0.59332 1.72 -1.02 s1.0133 -0.8 1.36 -1.12 c0.56 -0.48 1.0067 -0.88668 1.34 -1.22 s0.68664 -0.74 1.06 -1.22 c0.08 -0.05332 0.12668 -0.04664 0.14 0.020039 s0.0066408 0.16668 -0.020039 0.3 s-0.06668 0.32 -0.12 0.56 c-0.08 0.18668 -0.16 0.35336 -0.24 0.50004 s-0.19332 0.30668 -0.34 0.48 s-0.34 0.38 -0.58 0.62 s-0.53332 0.56 -0.88 0.96 c-0.4 0.37332 -0.78668 0.74 -1.16 1.1 s-0.76664 0.67332 -1.18 0.94 s-0.86664 0.45336 -1.36 0.56004 s-1.06 0.10668 -1.7 0 c-0.53332 -0.18668 -0.96 -0.38668 -1.28 -0.6 s-0.56668 -0.43332 -0.74 -0.66 s-0.3 -0.43336 -0.38 -0.62004 s-0.13332 -0.34668 -0.16 -0.48 c-0.13332 -0.53332 -0.18664 -1.2533 -0.15996 -2.16 s0.29336 -2.08 0.80004 -3.52 c0.34668 -0.74668 0.72 -1.38 1.12 -1.9 s0.86668 -0.92668 1.4 -1.22 z M131.68 35.76 c0.34668 -0.18668 0.75312 -0.44672 1.2198 -0.78004 s0.90668 -0.72 1.32 -1.16 s0.77332 -0.92668 1.08 -1.46 s0.47336 -1.0933 0.50004 -1.68 c0.08 -0.4 0.06668 -0.68 -0.04 -0.84 c-0.05332 -0.08 -0.10664 -0.12 -0.15996 -0.12 c-0.45332 -0.21332 -0.90664 -0.14664 -1.36 0.20004 s-0.86664 0.84 -1.24 1.48 s-0.68664 1.3533 -0.93996 2.14 s-0.38 1.5267 -0.38 2.22 z M142.79999999999998 31.72 c0 0.08 0.039922 0.45336 0.11992 1.12 s0.17332 1.48 0.28 2.44 s0.23336 1.9933 0.38004 3.1 s0.28 2.16 0.4 3.16 s0.23332 1.88 0.34 2.64 s0.17336 1.2467 0.20004 1.46 c-0.16 -0.02668 -0.29332 -0.05336 -0.4 -0.08004 s-0.21336 -0.09336 -0.32004 -0.20004 s-0.23336 -0.26 -0.38004 -0.46 s-0.35336 -0.48668 -0.62004 -0.86 c-0.34668 -2.4533 -0.62 -4.5932 -0.82 -6.42 s-0.36668 -3.3134 -0.5 -4.46 c-0.48 0.64 -0.82668 1.0667 -1.04 1.28 s-0.34664 0.32 -0.39996 0.32 c-0.08 0 -0.09332 -0.12 -0.04 -0.36 l0.08 -0.4 l0.08 -0.36 l0.12 -0.28 c0.18668 -0.26668 0.35336 -0.53336 0.50004 -0.80004 s0.26 -0.50668 0.34 -0.72 c0.10668 -0.26668 0.18668 -0.52 0.24 -0.76 c-0.02668 -0.29332 -0.04668 -0.54664 -0.06 -0.75996 s-0.02 -0.43332 -0.02 -0.66 s-0.0066796 -0.46 -0.02 -0.7 s-0.02 -0.54668 -0.02 -0.92 l0 -1.58 l0 -2.36 l0.04 -2.74 l0.1 -2.74 l0.16 -2.36 l0.22 -1.62 c0.18668 -0.77332 0.47336 -1.3666 0.86004 -1.78 s0.79336 -0.65332 1.22 -0.72 s0.84668 0.04 1.26 0.32 s0.72664 0.71332 0.93996 1.3 c0.24 0.58668 0.36 1.3467 0.36 2.28 s-0.08 1.9533 -0.24 3.06 s-0.38 2.26 -0.66 3.46 s-0.58 2.3667 -0.9 3.5 s-0.64 2.1933 -0.96 3.18 s-0.6 1.8134 -0.84 2.48 z M142.4799 29.439999999999998 c0.66668 -1.9467 1.2132 -3.86 1.6399 -5.74 s0.74 -3.5667 0.94 -5.06 s0.26668 -2.7 0.2 -3.62 s-0.26 -1.3933 -0.58 -1.42 c-0.50668 -0.18668 -0.90668 -0.013359 -1.2 0.51996 s-0.52664 1.28 -0.69996 2.24 s-0.28664 2.06 -0.33996 3.3 s-0.07332 2.4733 -0.06 3.7 s0.03332 2.3867 0.06 3.48 s0.04 1.96 0.04 2.6 z M149.87999999999997 31.72 c0 0.08 0.039922 0.45336 0.11992 1.12 s0.17332 1.48 0.28 2.44 s0.23336 1.9933 0.38004 3.1 s0.28 2.16 0.4 3.16 s0.23332 1.88 0.34 2.64 s0.17336 1.2467 0.20004 1.46 c-0.16 -0.02668 -0.29332 -0.05336 -0.4 -0.08004 s-0.21336 -0.09336 -0.32004 -0.20004 s-0.23336 -0.26 -0.38004 -0.46 s-0.35336 -0.48668 -0.62004 -0.86 c-0.34668 -2.4533 -0.62 -4.5932 -0.82 -6.42 s-0.36668 -3.3134 -0.5 -4.46 c-0.48 0.64 -0.82668 1.0667 -1.04 1.28 s-0.34664 0.32 -0.39996 0.32 c-0.08 0 -0.09332 -0.12 -0.04 -0.36 l0.08 -0.4 l0.08 -0.36 l0.12 -0.28 c0.18668 -0.26668 0.35336 -0.53336 0.50004 -0.80004 s0.26 -0.50668 0.34 -0.72 c0.10668 -0.26668 0.18668 -0.52 0.24 -0.76 c-0.02668 -0.29332 -0.04668 -0.54664 -0.06 -0.75996 s-0.02 -0.43332 -0.02 -0.66 s-0.0066796 -0.46 -0.02 -0.7 s-0.02 -0.54668 -0.02 -0.92 l0 -1.58 l0 -2.36 l0.04 -2.74 l0.1 -2.74 l0.16 -2.36 l0.22 -1.62 c0.18668 -0.77332 0.47336 -1.3666 0.86004 -1.78 s0.79336 -0.65332 1.22 -0.72 s0.84668 0.04 1.26 0.32 s0.72664 0.71332 0.93996 1.3 c0.24 0.58668 0.36 1.3467 0.36 2.28 s-0.08 1.9533 -0.24 3.06 s-0.38 2.26 -0.66 3.46 s-0.58 2.3667 -0.9 3.5 s-0.64 2.1933 -0.96 3.18 s-0.6 1.8134 -0.84 2.48 z M149.55989999999997 29.439999999999998 c0.66668 -1.9467 1.2132 -3.86 1.6399 -5.74 s0.74 -3.5667 0.94 -5.06 s0.26668 -2.7 0.2 -3.62 s-0.26 -1.3933 -0.58 -1.42 c-0.50668 -0.18668 -0.90668 -0.013359 -1.2 0.51996 s-0.52664 1.28 -0.69996 2.24 s-0.28664 2.06 -0.33996 3.3 s-0.07332 2.4733 -0.06 3.7 s0.03332 2.3867 0.06 3.48 s0.04 1.96 0.04 2.6 z M153.87999999999997 28 c0.50668 0.02668 1.0667 0.09996 1.68 0.21996 s1.2133 0.28 1.8 0.48 s1.1267 0.42668 1.62 0.68 s0.9 0.54 1.22 0.86 c0.32 0.29332 0.50668 0.74 0.56 1.34 s0.01332 1.26 -0.12 1.98 s-0.34 1.46 -0.62 2.22 s-0.59332 1.4467 -0.94 2.06 s-0.72 1.12 -1.12 1.52 s-0.77332 0.6 -1.12 0.6 c-0.58668 0 -1.08 -0.14 -1.48 -0.42 s-0.72 -0.62 -0.96 -1.02 s-0.42 -0.82 -0.54 -1.26 s-0.19332 -0.82 -0.22 -1.14 c-0.08 -1.4133 -0.09332 -2.6666 -0.04 -3.76 s0.14664 -2 0.27996 -2.72 c-0.08 -0.13332 -0.16 -0.25332 -0.24 -0.36 s-0.16 -0.20668 -0.24 -0.3 s-0.17332 -0.18 -0.28 -0.26 c0.10668 -0.05332 0.21336 -0.13332 0.32004 -0.24 c0.21332 -0.16 0.36 -0.32 0.44 -0.48 z M155.31999999999996 37.52 c0.08 0.10668 0.18688 0.22004 0.3202 0.34004 s0.3 0.21332 0.5 0.28 s0.40668 0.07336 0.62 0.020039 s0.44 -0.2 0.68 -0.44 c0.64 -0.66668 1.12 -1.3534 1.44 -2.06 s0.52668 -1.3734 0.62 -2 s0.08 -1.18 -0.04 -1.66 s-0.31332 -0.82668 -0.58 -1.04 c-0.21332 -0.13332 -0.39332 -0.24664 -0.54 -0.33996 s-0.33336 -0.18 -0.56004 -0.26 s-0.51336 -0.16668 -0.86004 -0.26 s-0.8 -0.22 -1.36 -0.38 c-0.26668 0.85332 -0.45336 1.7066 -0.56004 2.56 s-0.15336 1.6333 -0.14004 2.34 s0.06664 1.32 0.15996 1.84 s0.19332 0.87332 0.3 1.06 z M164.55999999999997 38.48 c0.08 0 0.20668 -0.09324 0.38 -0.27992 s0.38664 -0.58 0.63996 -1.18 s0.56 -1.44 0.92 -2.52 s0.76668 -2.5133 1.22 -4.3 c0.10668 -0.37332 0.26668 -0.48664 0.48 -0.33996 s0.37332 0.40668 0.48 0.78 c0.08 0.13332 0.24 0.46 0.48 0.98 s0.50668 1.08 0.8 1.68 s0.59332 1.1467 0.9 1.64 s0.56668 0.75332 0.78 0.78 c0.26668 0.05332 0.5 -0.21336 0.7 -0.80004 s0.36 -1.28 0.48 -2.08 s0.21332 -1.6133 0.28 -2.44 s0.1 -1.4534 0.1 -1.88 c0.05332 -0.08 0.17332 -0.22668 0.36 -0.44 s0.37336 -0.38 0.56004 -0.5 s0.32 -0.13332 0.4 -0.04 s0.05332 0.39332 -0.08 0.9 c0 1.3067 -0.1 2.52 -0.3 3.64 s-0.44 2.0933 -0.72 2.92 s-0.58 1.4667 -0.9 1.92 s-0.61332 0.68 -0.88 0.68 c-0.32 0.02668 -0.66 -0.18 -1.02 -0.62 s-0.7 -0.94 -1.02 -1.5 s-0.60668 -1.1133 -0.86 -1.66 s-0.44664 -0.91336 -0.57996 -1.1 c-0.16 0.74668 -0.4 1.6067 -0.72 2.58 s-0.66668 1.8866 -1.04 2.74 s-0.76 1.5733 -1.16 2.16 s-0.77332 0.85336 -1.12 0.80004 c-0.32 -0.24 -0.58 -0.7 -0.78 -1.38 s-0.36 -1.48 -0.48 -2.4 s-0.21332 -1.8867 -0.28 -2.9 s-0.11336 -1.9933 -0.14004 -2.94 s-0.04 -1.7867 -0.04 -2.52 l0 -1.58 c0 -0.18668 0.06 -0.34 0.18 -0.46 s0.26668 -0.22 0.44 -0.3 s0.34 -0.13332 0.5 -0.16 s0.28 -0.04 0.36 -0.04 c0.10668 -0.02668 0.16 0.07332 0.16 0.3 s-0.02 0.60668 -0.06 1.14 s-0.08 1.24 -0.12 2.12 s-0.03332 1.9467 0.02 3.2 c0 0.37332 0.01332 0.87332 0.04 1.5 s0.06 1.2334 0.1 1.82 s0.1 1.0867 0.18 1.5 s0.2 0.60664 0.36 0.57996 z M180.92 27.4 c0.66668 0.10668 1.2202 0.25332 1.6602 0.44 s0.78668 0.39336 1.04 0.62004 s0.45332 0.46 0.6 0.7 s0.28668 0.46668 0.42 0.68 c-0.02668 0.10668 -0.15336 0.09336 -0.38004 -0.039961 s-0.44668 -0.26664 -0.66 -0.39996 c-0.58668 -0.37332 -1.2934 -0.6 -2.12 -0.68 s-1.5934 -0.03332 -2.3 0.14 s-1.2734 0.47332 -1.7 0.9 s-0.53336 0.94668 -0.32004 1.56 s0.59332 1.1466 1.14 1.6 s1.1534 0.86 1.82 1.22 s1.3334 0.68668 2 0.98 s1.2134 0.58664 1.64 0.87996 c0.53332 -0.29332 0.98664 -0.54 1.36 -0.74 s0.70664 -0.38668 0.99996 -0.56 s0.59332 -0.33332 0.9 -0.48 s0.66 -0.31336 1.06 -0.50004 c0.05332 -0.02668 0.1 -0.04 0.14 -0.04 s0.04 0.03332 0 0.1 s-0.14668 0.17336 -0.32 0.32004 s-0.44664 0.35336 -0.81996 0.62004 c-0.18668 0.13332 -0.53336 0.36 -1.04 0.68 s-1.0534 0.66668 -1.64 1.04 c0.32 0.29332 0.57332 0.6 0.76 0.92 c0.16 0.29332 0.27332 0.60664 0.34 0.93996 s0.0066796 0.67332 -0.18 1.02 c-0.53332 0.85332 -1.1333 1.52 -1.8 2 s-1.28 0.81332 -1.84 1 c-0.37332 0.13332 -0.78664 0.14664 -1.24 0.039961 s-0.81332 -0.32 -1.08 -0.64 c-0.29332 -0.42668 -0.36664 -0.86 -0.21996 -1.3 s0.39336 -0.86668 0.74004 -1.28 s0.74668 -0.80664 1.2 -1.18 s0.85332 -0.70664 1.2 -0.99996 c-0.24 -0.26668 -0.70668 -0.59336 -1.4 -0.98004 s-1.4066 -0.81336 -2.14 -1.28 s-1.3933 -0.96668 -1.98 -1.5 s-0.90668 -1.0666 -0.96 -1.6 c-0.10668 -0.58668 -0.033359 -1.1534 0.21996 -1.7 s0.62664 -1.0267 1.12 -1.44 s1.0666 -0.72 1.72 -0.92 s1.34 -0.24668 2.06 -0.14 z M180.55999999999997 41.12 c0.29332 0.13332 0.62668 0.13328 1 -0.000039062 s0.72664 -0.32664 1.06 -0.57996 s0.62664 -0.53332 0.87996 -0.84 s0.42 -0.58 0.5 -0.82 c0.08 -0.21332 0.0066796 -0.44664 -0.22 -0.69996 s-0.46 -0.46 -0.7 -0.62 c-0.29332 0.21332 -0.62664 0.48664 -0.99996 0.81996 s-0.7 0.67332 -0.98 1.02 s-0.48668 0.68 -0.62 1 s-0.10664 0.56 0.08004 0.72 z M188.71999999999997 11.2 c0.02668 0.08 0.0534 0.42 0.080076 1.02 s0.04668 1.3667 0.06 2.3 s0.02 1.9933 0.02 3.18 s0.0066796 2.4067 0.02 3.66 s0.02 2.4933 0.02 3.72 l0 3.38 l0 2.6 l0 1.42 c0.29332 -1.3067 0.71332 -2.3867 1.26 -3.24 s1.0467 -1.3066 1.5 -1.36 c0.53332 -0.10668 0.94 0.0066408 1.22 0.33996 s0.50668 0.78664 0.68 1.36 s0.34664 1.2133 0.51996 1.92 s0.40664 1.38 0.69996 2.02 s0.69332 1.2067 1.2 1.7 s1.2 0.79332 2.08 0.9 c-0.69332 0.58668 -1.3133 0.85336 -1.86 0.80004 s-1.0334 -0.29332 -1.46 -0.72 s-0.8 -0.97336 -1.12 -1.64 s-0.58668 -1.32 -0.8 -1.96 s-0.38664 -1.2 -0.51996 -1.68 s-0.22664 -0.76 -0.27996 -0.84 c-0.16 -0.21332 -0.33332 -0.22664 -0.52 -0.039961 s-0.38 0.48 -0.58 0.88 s-0.38668 0.86 -0.56 1.38 s-0.32664 1.0133 -0.45996 1.48 s-0.24 0.86 -0.32 1.18 s-0.12 0.46668 -0.12 0.44 c-0.08 0.34668 -0.14668 0.8 -0.2 1.36 s-0.08664 1.1133 -0.09996 1.66 s-0.01332 1.04 0 1.48 s0.04664 0.71332 0.09996 0.82 c-0.18668 0 -0.45336 -0.06 -0.80004 -0.18 s-0.61336 -0.18 -0.80004 -0.18 l0 -3.14 l0 -4.32 l-0.02 -5.1 l-0.08 -5.5 l-0.14 -5.52 l-0.24 -5.18 c0 -0.05332 0.16 -0.15332 0.48 -0.3 s0.66668 -0.18 1.04 -0.1 z M200.03999999999996 22.4 c0.26668 -0.05332 0.42664 0.10672 0.47996 0.48004 s0 0.65332 -0.16 0.84 c-0.29332 0.24 -0.48 0.44668 -0.56 0.62 s-0.26668 0.28664 -0.56 0.33996 c-0.16 -0.02668 -0.3 -0.033359 -0.42 -0.020039 s-0.22 -0.20668 -0.3 -0.66 c0.10668 -0.29332 0.27336 -0.58664 0.50004 -0.87996 s0.56668 -0.53332 1.02 -0.72 z M200.15999999999997 27.6 c0.13332 1.28 0.22676 2.6867 0.28008 4.22 s0.14664 3.14 0.27996 4.82 c0.10668 0.85332 0.21336 1.52 0.32004 2 s0.18668 0.93332 0.24 1.36 c-0.42668 0.08 -0.76 0.07332 -1 -0.02 s-0.46668 -0.20664 -0.68 -0.33996 c-0.05332 -0.42668 -0.11332 -1.1334 -0.18 -2.12 s-0.13336 -2.06 -0.20004 -3.22 s-0.13336 -2.2867 -0.20004 -3.38 s-0.12668 -1.96 -0.18 -2.6 c0.10668 -0.05332 0.19336 -0.13332 0.26004 -0.24 s0.14 -0.2 0.22 -0.28 s0.18668 -0.14668 0.32 -0.2 s0.30664 -0.05332 0.51996 0 z M213.39999999999998 29.04 c0.10668 0.05332 0.23332 0.12 0.38 0.2 s0.28668 0.2 0.42 0.36 s0.24664 0.36668 0.33996 0.62 s0.14 0.58 0.14 0.98 c-0.05332 1.3867 -0.4 2.64 -1.04 3.76 s-1.4067 2.0667 -2.3 2.84 s-1.82 1.3466 -2.78 1.72 s-1.7733 0.50664 -2.44 0.39996 c0 2.5867 0.02 4.7468 0.06 6.48 s0.06668 3.1533 0.08 4.26 s0.01332 1.94 0 2.5 s-0.05332 0.94668 -0.12 1.16 s-0.18668 0.31332 -0.36 0.3 s-0.39332 -0.04664 -0.66 -0.09996 c-0.05332 0.08 -0.09332 0.01332 -0.12 -0.2 c-0.02668 -0.18668 -0.04668 -0.52 -0.06 -1 s-0.02 -1.2267 -0.02 -2.24 c0 -0.08 -0.0066796 -0.54 -0.02 -1.38 s-0.026641 -1.8933 -0.039961 -3.16 s-0.04 -2.66 -0.08 -4.18 s-0.08668 -3 -0.14 -4.44 s-0.11332 -2.7733 -0.18 -4 s-0.15336 -2.1734 -0.26004 -2.84 c0 -0.05332 -0.01332 -0.18664 -0.04 -0.39996 l-0.1 -0.8 l-0.16 -1.04 l-0.22 -1.08 c0.45332 -0.02668 0.76 0.02 0.92 0.14 s0.32 0.26 0.48 0.42 c0.16 0.50668 0.31332 1.32 0.46 2.44 s0.31336 2.64 0.50004 4.56 c0.05332 -0.26668 0.19332 -0.64 0.42 -1.12 s0.52668 -0.99332 0.9 -1.54 s0.8 -1.0867 1.28 -1.62 s0.98668 -0.98664 1.52 -1.36 s1.0733 -0.63332 1.62 -0.78 s1.0867 -0.1 1.62 0.14 z M208.35999999999996 38.04 c1.2267 -0.50668 2.1934 -1.1599 2.9001 -1.9599 s1.22 -1.5933 1.54 -2.38 s0.48 -1.4867 0.48 -2.1 s-0.12 -1 -0.36 -1.16 c-0.53332 -0.34668 -1.04 -0.38668 -1.52 -0.12 s-0.94668 0.58668 -1.4 0.96 c-0.24 0.21332 -0.57332 0.59332 -1 1.14 s-0.85336 1.1534 -1.28 1.82 s-0.79336 1.34 -1.1 2.02 s-0.46 1.2733 -0.46 1.78 c0.10668 0.13332 0.26668 0.22664 0.48 0.27996 c0.16 0.05332 0.38 0.06664 0.66 0.039961 s0.63332 -0.13336 1.06 -0.32004 z"/></g>
			</g>
		</svg>
	