<svg stroke="white" stroke-width="100px" width="2952" height="3000" viewBox="0 0 2952 3000" fill="none"
     xmlns="http://www.w3.org/2000/svg">
    <path d="M359.488 2458.34C388.903 2492.85 419.936 2525.94 452.48 2557.52C562.181 2665.49 692.999 2756.24 833.337 2824.88C885.045 2849.09 932.739 2874.18 988.621 2895.77C1002.58 2901.14 1016.85 2906.88 1031.84 2912.05C1046.96 2916.84 1062.64 2921.63 1079.03 2926.38C1095.32 2931.47 1112.7 2935.09 1130.86 2938.85C1149.05 2942.5 1167.93 2946.67 1188.2 2948.75C1087.61 2927.55 989.566 2895.69 895.723 2853.71C801.296 2811.11 711.572 2758.78 628.01 2697.55C460.652 2574.95 317.505 2417.54 212.946 2237.6C208.63 2232.23 202.077 2221.98 194.224 2208.92L181.594 2187.53L168.853 2162.92C160.381 2145.85 150.623 2128.52 143.15 2111.74C136.449 2097.05 129.434 2082.52 122.111 2068.14C154.605 2149.07 192.113 2219.87 234.112 2287.19C253.457 2318.06 273.933 2348.21 295.499 2377.58C292.452 2373.47 289.279 2369.47 286.249 2365.34C309.358 2397.18 333.706 2428.09 359.234 2458.02L359.488 2458.34ZM21.1849 1682.5L13.5215 1621.02C17.5833 1658.54 22.2956 1700.48 30.911 1742.46L25.7227 1712.65C23.8077 1702.67 22.2939 1692.61 21.1849 1682.5ZM1361.53 2944.4C1467.07 2955.08 1577.76 2951.89 1686.17 2934.74C1794.65 2917.65 1900.75 2887.35 1999.39 2848.28C1817.72 2919.73 1624.91 2951.51 1436.29 2946.2C1411.05 2945.8 1386.17 2946.2 1361.53 2944.4Z"
          fill="white"/>
    <path d="M736.615 2728.49L732.506 2725.88C733.886 2726.75 735.235 2727.64 736.615 2728.49ZM889.742 2812.85C976.709 2853.32 1067.8 2884.26 1161.42 2905.13C1007.71 2870.07 863.054 2808.21 736.615 2728.49C785.166 2759.39 836.208 2787.98 889.742 2812.85ZM2808.38 1699.19C2809.94 1674.13 2813.08 1647.82 2813.87 1635.3C2823.3 1554.84 2826.09 1486.14 2825.69 1417.22C2823.95 1404.79 2818.95 1381.52 2816.97 1355.05C2814.54 1328.52 2810.97 1302.55 2807.95 1276.93C2803.37 1251.53 2799.42 1226.38 2794.4 1201.72C2830.5 1386.04 2829.9 1571.07 2796.69 1745.65C2800.34 1730.1 2804.24 1714.62 2808.38 1699.19Z"
          fill="white"/>
    <path d="M14.079 1324.56C27.5337 1215.08 56.1725 1108.36 83.415 1037.27L72.3879 1089.31C79.1946 1074.06 90.19 1038.63 105.184 1001.14L116.005 972.548L127.952 944.829C135.885 926.884 142.549 909.876 149.578 896.833C144.77 909.066 140.137 922.251 134.552 935.484C129.078 948.764 122.938 962.25 117.083 975.816L141.105 921.728C116.868 982.445 96.0032 1044.46 78.6075 1107.48C60.6309 1176.53 46.4147 1249.1 38.7671 1314.25C36.5458 1330.49 35.7683 1346.36 34.3245 1361.5C33.2614 1376.63 31.4209 1391.07 31.2781 1404.72C30.6118 1431.99 29.6915 1455.87 30.1516 1474.97C31.8176 1513.19 34.1182 1532.25 37.4343 1521.6C43.9554 1500.45 43.8284 1391.69 66.5808 1255.57C78.7503 1187.73 96.2192 1113.31 119.924 1040.41C143.453 967.439 174.298 896.691 206.237 834.272L196.844 854.772L188.197 875.89L170.49 918.586L154.243 962.695L145.976 984.939C143.549 992.492 141.089 1000.08 138.662 1007.69C117.718 1068.09 102.058 1131.7 88.4129 1195.82L79.5436 1244.24C76.291 1260.33 74.9107 1276.71 72.499 1292.91C67.4535 1325.29 65.613 1357.91 62.8046 1390.15C59.6472 1454.79 59.0126 1518.64 64.8672 1579.69C64.6292 1565.19 64.3913 1552.3 64.5975 1539.83L66.4222 1502.47C67.1837 1489.63 67.0409 1476.02 68.2468 1460.42C69.3574 1444.83 70.3729 1427.25 71.2614 1406.45C77.4651 1301.6 96.2033 1197.8 125.334 1097.35C153.1 996.474 185.848 907.638 234.637 827.148L247.346 802.936C255.946 786.689 263.102 770.664 272.193 754.322C282.554 736.393 292.47 722.97 300.499 710.673C308.765 698.504 315.778 687.81 323.806 677.433L382.226 596.8C383.416 596.658 381.877 599.736 379.053 604.305C388.685 590.579 399.062 577.39 410.135 564.798C422.114 550.915 433.744 536.191 443.597 524.037C445.914 523.926 448.167 523.863 453.482 520.055C590.726 374.132 759.624 255.213 949.957 180.245L992.272 163.76L1035.11 149.496L1056.42 142.388L1078 136.358L1121 124.411C1145.59 118.493 1170.5 112.495 1195.9 107.101L1234.57 100.342C1247.56 98.1045 1260.62 95.5817 1273.98 94.3442C1300.54 91.155 1323.7 84.4277 1336.19 82.7776C1405.51 78.8269 1474.71 79.6202 1555.93 86.2047C1562.22 86.3158 1572.03 86.887 1583.41 87.5058C1594.78 88.1563 1607.79 88.4736 1620.41 89.6319C1635.19 92.9638 1650.98 96.264 1667.55 99.4849C1768.6 115.161 1866.3 143.181 1959.26 180.451L1959.15 180.007L1994.76 194.191L2031.09 210.978C2056.02 221.83 2080.44 235.714 2105.66 248.787C2118.32 255.245 2130.32 263.131 2142.76 270.27C2154.98 277.791 2167.76 284.455 2179.57 292.674C2203.5 308.572 2227.75 323.788 2250.11 340.781C2286.16 366.791 2321.09 394.307 2354.83 423.254C2355.56 423.92 2356.32 424.539 2357.05 425.19L2357.72 425.793L2380.83 446.768L2402.95 468.838L2425.08 490.924C2432.42 498.334 2439.21 506.267 2446.3 513.914C2442.87 508.361 2443 506.124 2443.13 503.919C2432.19 493.447 2419.26 481.055 2406.49 468.854C2427.8 488.243 2446.39 505.775 2461.66 520.086C2467.54 527.607 2473.97 535.001 2480.06 543.077L2498.88 567.924L2518.89 593.77L2538.8 621.568C2574.12 666.596 2605.3 714.767 2634.9 763.889C2648.61 789.085 2663.73 813.567 2675.93 839.635L2695.18 878.286L2712.5 917.904C2717.49 926.361 2715.55 918.253 2716.17 916.825C2735.61 963.821 2751.23 1012.69 2765.39 1061.94C2792.44 1150.94 2810.55 1242.42 2819.46 1335.01C2823.03 1356.88 2824.55 1379 2827.71 1400.91L2825.76 1447.3C2825.74 1464.8 2826.66 1482.3 2825.92 1499.83L2823.89 1552.61C2823.63 1564.51 2821.92 1577.5 2820.92 1591.62C2819.59 1605.71 2818.89 1620.91 2816.86 1636.94L2810.32 1687.58C2808.23 1705.34 2804.18 1723.58 2801.07 1742.65C2785.58 1826.4 2762.69 1908.6 2732.65 1988.3C2728.81 2001.4 2725.88 2011.87 2723.26 2017.73C2713.31 2041.54 2702.7 2064.6 2692.45 2087.3C2680.98 2109.42 2670.46 2131.54 2658.7 2152.48C2622.34 2221.43 2580.15 2287.14 2532.58 2348.89C2527.25 2355.86 2522.28 2362.93 2516.92 2369.47L2501.08 2388.61C2490.61 2400.97 2481.25 2413.33 2471.32 2424.05C2451.47 2445.5 2434.81 2465.4 2419.18 2480.36C2401.29 2499.05 2402.89 2499.92 2415.28 2490.91C2423.98 2484.49 2432.48 2477.81 2440.79 2470.89L2474.46 2440.52C2486.77 2429.78 2498.56 2417.66 2509.92 2406.23C2521.16 2394.73 2532.39 2384.24 2541.05 2374.75C2558.52 2355.86 2569.99 2344.2 2567.55 2349.38C2539.35 2402.46 2488.01 2467.92 2412.96 2540.34C2374.68 2575.67 2331.6 2614.07 2280.65 2651.08C2255.81 2670.46 2228.18 2688.18 2200.02 2707.54C2170.92 2725.35 2141.19 2744.87 2108.68 2762.19C2037.53 2800.94 2162.07 2738.79 2165.43 2738.2C2153.42 2747.66 2140.82 2756.36 2127.72 2764.23C2104.27 2776.7 2081.02 2789.56 2056.73 2800.29C2042.53 2806.81 2028.58 2813.86 2014.23 2819.95L1970.93 2837.75L1993.84 2828.74C2040.67 2810.13 2084.45 2788.2 2123.97 2766.51C2109.12 2775.49 2092.87 2785.88 2075.07 2795.26C2055.99 2805.13 2036.23 2815.92 2016.41 2825.55L1958.9 2852.3C2164.65 2777.55 2353.73 2653.86 2503.42 2492.61C2578.35 2412.23 2645.18 2323.93 2699.67 2228.42C2754.49 2133.1 2798.59 2032 2831.17 1926.97C2781.13 2084.53 2703.11 2229.26 2609.34 2351.64C2779.81 2121.46 2881.45 1839.26 2894.92 1548.23C2894.9 1564.27 2893.32 1580.25 2892.25 1596.22C2890.94 1612.2 2890.3 1628.24 2888.43 1644.17C2884.35 1675.98 2881.43 1707.97 2875.31 1739.51C2865.41 1802.98 2849.35 1865.35 2831.17 1926.97C2867.06 1815.58 2888.49 1698.12 2896.93 1579.99C2905.72 1461.77 2898.39 1342.84 2880.16 1227.58C2911.48 1380.25 2916.67 1553.23 2889.99 1724.17C2908.74 1613.91 2913.5 1500.26 2906.3 1387.58C2904.68 1344.53 2899.6 1301.79 2895.43 1262.22C2889.45 1222.93 2884.92 1186.66 2879.13 1157.33C2902.06 1265.63 2911.1 1358.01 2915.51 1445.08C2911.28 1255.05 2871.91 1062.51 2794.61 881.649C2836.8 979.878 2871.44 1085.55 2892.59 1194.19C2913.85 1302.71 2922.69 1413.74 2917.66 1520.56C2917.42 1508.05 2917.94 1495.57 2917.21 1483.02L2915.51 1445.08C2920.07 1617.23 2893.56 1787.86 2841.01 1948.31C2814.64 2028.53 2782.06 2106.49 2742.63 2180.66C2703.29 2254.72 2657.86 2325.39 2606.82 2391.94C2665.1 2323.87 2726.63 2227.66 2775.73 2121.97C2824.62 2016.06 2860.9 1901.52 2885.86 1801.49C2849.15 1981.13 2776.27 2158.38 2670.54 2316.68C2565.09 2475.11 2426.97 2614.4 2267.17 2721.31C2107.55 2828.55 1926.45 2902.77 1740.61 2939.44C1648.33 2957.76 1554.53 2967.37 1460.46 2968.14C1368.09 2968.63 1275.88 2960.59 1185 2944.1L1232.68 2953.16C1248.58 2956.18 1264.7 2957.84 1280.69 2960.22C1312.68 2965.36 1345.03 2967.3 1377.27 2970.27C1441.89 2973.9 1506.87 2975.12 1571.63 2970.19C1636.51 2966.74 1700.98 2957.07 1765.14 2945.25C1796.97 2938.01 1829.18 2932.09 1860.61 2922.81C1876.38 2918.4 1892.34 2914.54 1908 2909.64L1954.89 2894.44C1931.21 2901.77 1906.3 2911.48 1879.69 2918.61L1846.36 2928.41C1916.32 2909.76 1984.78 2885.91 2051.19 2857.08C2081.57 2843.82 2111.48 2829.51 2140.85 2814.16C2085.81 2843.35 2029.04 2869.17 1970.86 2891.46C1859.92 2932.86 1744.62 2961.51 1627.2 2976.85C1609.59 2979.64 1593.53 2980.52 1579.14 2982.02L1540.61 2985.83C1517.94 2987.62 1501.2 2988.43 1489.49 2989.72C1466.06 2992.05 1462.73 2994.22 1472.06 2996.02C1481.37 2997.81 1503.33 2999.24 1530.33 3000C1557.26 2999.84 1589.2 2998.4 1618.25 2995.75C1910.14 2965.81 2178.14 2851.25 2392.91 2679.75C2607.82 2508.22 2772.42 2280.36 2864.15 2021.82C2869.91 2006.81 2874.34 1991.33 2879.13 1975.97C2883.78 1960.56 2888.92 1945.31 2893.13 1929.77C2900.92 1898.51 2910.14 1867.62 2916.1 1835.88L2925.92 1788.52L2933.65 1740.73L2937.47 1716.82L2940.2 1692.75L2945.63 1644.62C2956.7 1515.88 2952.32 1385.76 2932.75 1258.06C2922.27 1185.81 2903.87 1100.02 2880.15 1023.61L2861.9 968.327C2855.56 950.763 2848.81 934.199 2842.81 918.618L2833.98 896.167L2824.92 876.001L2809.35 842.301C2759.63 741.406 2697.15 645.177 2624 555.675C2550.94 466.141 2466.99 383.239 2372.35 311.047L2336.74 284.027L2299.82 258.513L2281.32 245.725L2262.23 233.73L2223.88 209.804C2171.6 179.594 2118.05 150.479 2061.6 126.331C2005.74 100.976 1947.27 80.3976 1887.75 61.9926C1857.69 53.7421 1827.76 44.5396 1796.94 38.209C1781.58 34.8929 1766.34 30.8628 1750.81 28.0862L1704.1 19.8198C1592.4 0.161404 1476.21 -4.51917 1360.13 4.20733C1244.12 13.1718 1127.61 35.1943 1015.9 73.2102L974.09 87.6962C960.111 92.4085 946.641 98.517 932.885 103.864C919.271 109.56 905.356 114.542 891.997 120.825L851.823 139.436C838.305 145.402 825.247 152.256 812.221 159.19L773.047 179.769L734.936 202.172C722.243 209.661 709.454 216.975 697.301 225.305L660.427 249.549C648.02 257.435 636.532 266.653 624.553 275.126C612.796 283.916 600.595 292.103 589.235 301.369L555.011 328.928C543.445 337.893 532.528 347.619 521.644 357.361L488.912 386.396L457.639 416.844C447.231 426.983 436.711 437.01 427.017 447.799C347.193 531.859 277.064 623.567 219.707 720.606C163.462 815.8 117.371 916.64 82.1933 1021.46C12.778 1226.46 -7.13433 1434.35 2.13162 1622.13C0.132462 1544.83 -0.200732 1433.97 14.079 1324.56ZM2253.33 2759.61C2301.55 2728.44 2347.97 2694.6 2392.4 2658.24C2347.34 2695.35 2301.04 2729.62 2253.33 2759.61ZM2891.43 1898.35C2886.69 1912.65 2882.67 1926.77 2877.44 1940.25L2862.25 1980.28L2854.86 2000.09L2846.72 2019.62C2841.28 2032.78 2836.01 2046.01 2830.9 2059.3C2801.52 2132.47 2766.58 2203.28 2726.39 2271.11C2686.39 2338.94 2640.03 2402.5 2590.49 2462.15C2566.03 2492.28 2539.37 2520.22 2513.16 2548.16L2472.21 2588.19C2458.77 2601.64 2444.06 2613.64 2430.13 2626.33C2418.45 2636.49 2406.68 2646.42 2394.83 2656.19C2438.85 2620.03 2480.68 2581.29 2520.11 2540.18C2463.06 2599.3 2401.01 2653.39 2334.65 2701.82C2318.21 2713.28 2302.33 2725.56 2285.25 2736.35L2233.74 2769.18L2179.31 2800.1C2160.8 2810.38 2141.25 2819.52 2121.66 2829.53C2135.69 2821.26 2149.89 2813.29 2164.26 2805.61C2180.46 2796.61 2197.45 2785.98 2214.05 2776.25C2230.77 2766.72 2245.97 2756.24 2258.6 2747.49C2271.23 2738.73 2281.13 2731.46 2286.29 2726.77C2278.92 2731.76 2271.44 2736.55 2263.98 2741.43C2272 2736.14 2279.97 2730.77 2287.89 2725.32C2287.56 2725.69 2286.86 2726.26 2286.29 2726.77C2459.74 2608.31 2607.5 2452.64 2718.22 2275.18C2829.42 2097.87 2901.79 1897.86 2931.78 1694.45C2925.27 1776.04 2910.33 1841.18 2891.43 1898.35ZM2651.82 659.98C2699.56 732.097 2740.83 808.299 2775.14 887.694C2779.11 896.405 2782.86 905.243 2786.55 914.096C2865.3 1106.94 2901.12 1313.8 2895.87 1517.59C2897.2 1450.16 2892.73 1382.76 2885.26 1315.93C2876.8 1238.91 2861.17 1162.82 2840.45 1088.39C2799.8 939.133 2733.78 797.669 2649.97 668.707C2657.67 679.337 2665.78 690.856 2674.17 703.073C2683.16 715.717 2691.58 728.757 2699.4 742.152L2689.28 724.556L2678.34 707.437L2656.48 673.229C2641.6 650.635 2625.46 628.866 2609.93 606.717C2593.08 585.551 2577.1 563.687 2559.57 543.077C2546.3 527.956 2533.6 512.328 2520.14 497.398C2567.61 547.456 2612.18 601.164 2651.82 659.98ZM1537.23 18.2808C1560.51 19.5184 1583.83 21.7873 1607.16 23.5326C1626.26 25.1351 1645.27 27.9593 1664.09 30.0854C1669.73 30.3234 1675.7 30.7042 1683.19 31.5451C1690.66 32.5764 1699.6 34.4962 1711.26 37.1618C1798.03 51.6319 1877.2 73.3847 1933.4 95.8515C2041.26 136.676 2141.62 187.464 2232.64 246.122C2323.7 304.669 2405.41 371.26 2474.54 443.991C2506.4 478.564 2497.1 471.028 2479.54 454.241L2505.91 482.229C2494.23 470.583 2482.76 458.779 2470.91 447.387L2434.4 414.226C2443.28 422.001 2464.83 440.612 2479.54 454.241C2362.3 334.624 2225.26 235.301 2076.93 162.236C1928.48 89.2035 1768.63 44.0954 1608.84 26.0871C1634.51 28.943 1647.11 29.5777 1659.1 29.895C1641.89 27.88 1624.63 25.1192 1607.16 23.5326C1583.69 21.9935 1560.27 19.8992 1536.98 18.7568L1467.8 17.1226C1490.71 17.1067 1513.93 17.7413 1537.23 18.2808Z"
          fill="white"/>
    <path d="M1839.58 2930.36L1846.34 2928.38C1839.27 2930.28 1832.3 2932.38 1825.18 2934.19C1830 2932.98 1834.84 2931.81 1839.58 2930.36ZM2545.35 2318.89C2612.54 2230.24 2671.92 2124.32 2709.82 2033.07L2709.36 2033.17C2613.2 2260.4 2457.21 2456.16 2262.56 2600.29C2297.12 2576.27 2331.08 2551.39 2364.39 2525.67C2407.2 2480.93 2478.84 2408.17 2545.35 2318.89ZM560.88 2583.78C674.673 2685.51 811.902 2774.05 964.647 2833.69C1024.21 2856.11 1084.99 2875.75 1147.16 2889.58C1178 2897.55 1209.5 2902.47 1240.75 2908.32C1256.41 2911.1 1272.28 2912.64 1288.02 2914.86C1303.79 2916.91 1319.53 2919.22 1335.41 2920.14C1263.71 2912.19 1192.54 2900.29 1123.25 2881.43C1054.01 2862.63 986.13 2839.38 920.65 2810.84C855.509 2781.84 792.454 2748.37 731.935 2710.66C671.865 2672.45 614.905 2629.79 560.88 2583.78ZM1965.48 2765.14L1930.27 2778.96L1894.32 2790.96C1870.52 2799.53 1845.98 2805.94 1821.49 2812.74C1846.1 2806.56 1870.86 2800.78 1894.86 2792.85L1931.08 2781.77L1966.47 2768.84C1965.1 2768.14 1957.04 2769.71 1965.48 2765.14ZM1549.88 2855.39C1531.47 2856.96 1512.97 2856.82 1494.44 2857.01C1475.91 2857.23 1457.35 2857.63 1438.77 2856.41L1463.77 2858.76C1471.42 2859.25 1478.31 2859.84 1484.32 2860.55C1506.23 2858.68 1527.98 2858.15 1549.88 2855.39ZM816.186 2684.73C837.463 2697.22 860.056 2708.22 882.475 2720.34C888.092 2723.42 898.278 2726.92 911.051 2731.59C883.745 2719.86 857.581 2705.33 830.989 2691.84C817.82 2684.85 805.143 2677.01 792.227 2669.71C779.344 2662.35 766.508 2655 754.323 2646.78L769.189 2656.71L784.691 2665.98L816.186 2684.73Z"
          fill="white"/>
</svg>
