<svg width="267" height="263" viewBox="0 0 267 263" fill="none" xmlns="http://www.w3.org/2000/svg">
<path d="M243.65 106.331L251.233 98.8702C256.096 94.0862 256.096 86.2972 251.233 81.5132L233.817 64.3775C228.954 59.5894 221.038 59.5894 216.175 64.3775L207.225 73.1831C201.517 71.5065 194.963 70.084 187.496 68.9525V24.5966C187.496 20.2225 185.758 16.1067 182.608 13.0075C179.458 9.90834 175.279 8.19887 170.833 8.19887C161.642 8.19887 154.167 15.5533 154.167 24.5966V43.2736C151.704 41.8634 148.883 40.9944 145.833 40.9944C140.833 40.9944 136.392 43.2163 133.333 46.6598C130.275 43.2163 125.833 40.9944 120.833 40.9944C117.783 40.9944 114.963 41.8634 112.5 43.2736V16.3977C112.5 12.0236 110.763 7.90781 107.613 4.80864C104.463 1.70946 100.279 0 95.8334 0C86.6417 0 79.1667 7.35439 79.1667 16.3977V68.9525C71.6958 70.084 65.1417 71.5065 59.4375 73.1831L50.4875 64.3775C45.625 59.5894 37.7083 59.5894 32.8458 64.3775L15.4292 81.5132C10.5667 86.2972 10.5667 94.0862 15.4292 98.8702L23.0167 106.335C5.79167 144.509 0 210.67 0 225.469C0 254.653 24.5292 262.364 37.5 262.364C39.2542 262.364 40.8208 261.282 41.4167 259.658C41.4667 259.519 45.9917 247.253 51.875 233.11L58.3333 239.464V258.264C58.3333 260.527 60.2 262.364 62.5 262.364H183.333C185.633 262.364 187.5 260.527 187.5 258.264V188.394C189.642 189.435 191.604 190.587 193.329 191.854C200.283 196.99 216.596 236.173 225.246 259.662C225.846 261.282 227.413 262.364 229.167 262.364C242.138 262.364 266.667 254.653 266.667 225.469C266.667 210.666 260.871 144.493 243.65 106.331ZM222.071 70.17C223.688 68.5795 226.317 68.5795 227.929 70.17L245.346 87.3057C246.963 88.8963 246.963 91.483 245.346 93.0695L239.754 98.5709C236.042 91.8766 232.017 86.5965 227.717 82.9726C224.696 80.4268 220.725 78.168 215.95 76.1921L222.071 70.17ZM120.833 106.585C125.833 106.585 130.275 104.363 133.333 100.92C136.392 104.363 140.833 106.585 145.833 106.585C155.025 106.585 162.5 99.2309 162.5 90.1876V74.6302C173.904 75.3558 183.963 76.516 192.533 78.1229L164.583 114.784H102.083L74.1333 78.1229C82.7 76.5201 92.7584 75.3558 104.167 74.6302V90.1876C104.167 99.2309 111.642 106.585 120.833 106.585ZM162.5 24.5966C162.5 20.0749 166.238 16.3977 170.833 16.3977C173.054 16.3977 175.146 17.2504 176.721 18.8041C178.296 20.3578 179.167 22.4116 179.167 24.5966V67.8621C173.963 67.2635 168.396 66.7839 162.5 66.415V57.3921V24.5966ZM145.833 49.1932C150.429 49.1932 154.167 52.8704 154.167 57.3921V70.2643V90.1876C154.167 94.7093 150.429 98.3865 145.833 98.3865C141.238 98.3865 137.5 94.7093 137.5 90.1876V57.3921C137.5 52.8704 141.238 49.1932 145.833 49.1932ZM120.833 49.1932C125.429 49.1932 129.167 52.8704 129.167 57.3921V90.1876C129.167 94.7093 125.429 98.3865 120.833 98.3865C116.238 98.3865 112.5 94.7093 112.5 90.1876V70.2643V57.3921C112.5 52.8704 116.238 49.1932 120.833 49.1932ZM87.5 16.3977C87.5 11.8761 91.2375 8.19887 95.8334 8.19887C98.0542 8.19887 100.146 9.05155 101.721 10.6052C103.296 12.1589 104.167 14.2127 104.167 16.3977V57.3921V66.415C98.2709 66.7839 92.7042 67.2635 87.5 67.8621V16.3977ZM21.3208 87.3057L38.7375 70.17C40.3542 68.5795 42.9833 68.5795 44.5958 70.17L50.7208 76.1962C45.9417 78.1721 41.975 80.4309 38.9583 82.9726C34.65 86.6006 30.625 91.8807 26.9167 98.5709L21.3208 93.0654C19.7042 91.4789 19.7042 88.8963 21.3208 87.3057ZM66.6667 254.165V237.767C66.6667 236.681 66.2292 235.636 65.4458 234.869L48.0708 217.774C45.7167 215.454 44.4167 212.363 44.4167 209.071C44.4167 205.779 45.7167 202.688 48.0708 200.368L78.9292 170.008C81.375 173.357 82.9042 177.223 83.4083 181.392C84.4125 189.054 81.7958 196.588 76.2208 202.073L72.0542 206.173C70.8625 207.345 70.5042 209.108 71.15 210.641C71.7958 212.17 73.3167 213.171 75 213.171C84.1917 213.171 91.6667 220.525 91.6667 229.568V233.668H100V229.568C100 218.939 93.1084 209.858 83.4917 206.431C88.5834 200.803 91.4667 193.772 91.8708 186.401C94.2833 187.742 97.0333 188.574 100 188.574C105.946 188.574 111.138 185.471 114.088 180.847C121.35 180.4 128.213 180.375 133.333 180.375C138.454 180.375 145.317 180.4 152.579 180.847C155.529 185.471 160.721 188.574 166.667 188.574C170.733 188.574 174.413 187.078 177.313 184.688C177.946 184.86 178.558 185.057 179.167 185.249V254.165H66.6667ZM91.6667 172.176C91.6667 167.655 95.4042 163.977 100 163.977C104.596 163.977 108.333 167.655 108.333 172.176C108.333 176.698 104.596 180.375 100 180.375C95.4042 180.375 91.6667 176.698 91.6667 172.176ZM158.333 172.176C158.333 167.655 162.071 163.977 166.667 163.977C171.263 163.977 175 167.655 175 172.176C175 176.698 171.263 180.375 166.667 180.375C162.071 180.375 158.333 176.698 158.333 172.176ZM232.008 253.968C226.388 238.948 208.525 192.821 198.329 185.29C194.521 182.49 189.942 180.158 184.821 178.391C184.029 178.092 183.179 177.825 182.338 177.555C182.942 175.862 183.333 174.07 183.333 172.176C183.333 163.133 175.858 155.779 166.667 155.779C157.475 155.779 150 163.133 150 172.176C150 172.283 150.029 172.381 150.033 172.488C143.692 172.189 137.85 172.176 133.333 172.176C128.817 172.176 122.975 172.189 116.633 172.488C116.638 172.381 116.667 172.283 116.667 172.176C116.667 163.133 109.192 155.779 100 155.779C93.5583 155.779 88.0209 159.431 85.2458 164.711C84.2833 163.449 83.2709 162.219 82.1125 161.079C80.4834 159.476 77.85 159.476 76.2208 161.079L42.1792 194.572C34.05 202.565 34.05 215.577 42.1792 223.571L45.5 226.838C40.675 238.263 36.5458 248.996 34.6708 253.968C27.2958 253.124 8.33333 248.696 8.33333 225.469C8.33333 210.711 14.1917 143.632 31.7708 107.184C35.675 99.0055 39.9167 92.9588 44.375 89.2037C47.7792 86.33 52.8792 83.813 59.5458 81.7059C61.3167 81.136 63.2333 80.6031 65.2167 80.0907L96.6667 121.343C97.45 122.372 98.6875 122.983 100 122.983H166.667C167.979 122.983 169.213 122.376 170 121.343L201.45 80.0907C203.442 80.6031 205.367 81.136 207.146 81.71C213.788 83.8089 218.883 86.3259 222.292 89.2037C226.75 92.9588 230.992 99.0055 234.904 107.196C252.475 143.632 258.333 210.711 258.333 225.469C258.333 248.692 239.375 253.124 232.008 253.968Z" fill="url(#paint0_linear_51_27)"/>
<path d="M87.5003 118.884H79.167V110.685C79.167 108.422 77.3003 106.585 75.0003 106.585H58.3337C56.0337 106.585 54.167 108.422 54.167 110.685V118.884H45.8337C43.5337 118.884 41.667 120.72 41.667 122.983V139.381C41.667 141.644 43.5337 143.48 45.8337 143.48H54.167V151.679C54.167 153.942 56.0337 155.778 58.3337 155.778H75.0003C77.3003 155.778 79.167 153.942 79.167 151.679V143.48H87.5003C89.8003 143.48 91.667 141.644 91.667 139.381V122.983C91.667 120.72 89.8003 118.884 87.5003 118.884ZM62.5003 114.784H70.8337V121.286L66.667 125.385L62.5003 121.286V114.784ZM50.0003 127.082H56.6087L60.7753 131.182L56.6087 135.281H50.0003V127.082ZM70.8337 147.58H62.5003V141.078L66.667 136.978L70.8337 141.078V147.58ZM83.3337 135.281H76.7253L72.5587 131.182L76.7253 127.082H83.3337V135.281Z" fill="url(#paint1_linear_51_27)"/>
<path d="M195.834 131.182C195.834 124.401 190.226 118.884 183.334 118.884C176.442 118.884 170.834 124.401 170.834 131.182C170.834 137.962 176.442 143.48 183.334 143.48C190.226 143.48 195.834 137.962 195.834 131.182ZM183.334 135.281C181.038 135.281 179.167 133.441 179.167 131.182C179.167 128.923 181.038 127.082 183.334 127.082C185.63 127.082 187.501 128.923 187.501 131.182C187.501 133.441 185.63 135.281 183.334 135.281Z" fill="url(#paint2_linear_51_27)"/>
<path d="M204.167 122.983C211.059 122.983 216.667 117.465 216.667 110.685C216.667 103.904 211.059 98.3864 204.167 98.3864C197.275 98.3864 191.667 103.904 191.667 110.685C191.667 117.465 197.275 122.983 204.167 122.983ZM204.167 106.585C206.463 106.585 208.334 108.426 208.334 110.685C208.334 112.944 206.463 114.784 204.167 114.784C201.871 114.784 200 112.944 200 110.685C200 108.426 201.871 106.585 204.167 106.585Z" fill="url(#paint3_linear_51_27)"/>
<path d="M204.167 139.381C197.275 139.381 191.667 144.898 191.667 151.679C191.667 158.459 197.275 163.977 204.167 163.977C211.059 163.977 216.667 158.459 216.667 151.679C216.667 144.898 211.059 139.381 204.167 139.381ZM204.167 155.778C201.871 155.778 200 153.938 200 151.679C200 149.42 201.871 147.579 204.167 147.579C206.463 147.579 208.334 149.42 208.334 151.679C208.334 153.938 206.463 155.778 204.167 155.778Z" fill="url(#paint4_linear_51_27)"/>
<path d="M225 118.884C218.108 118.884 212.5 124.401 212.5 131.182C212.5 137.962 218.108 143.48 225 143.48C231.892 143.48 237.5 137.962 237.5 131.182C237.5 124.401 231.892 118.884 225 118.884ZM225 135.281C222.704 135.281 220.833 133.441 220.833 131.182C220.833 128.923 222.704 127.082 225 127.082C227.296 127.082 229.167 128.923 229.167 131.182C229.167 133.441 227.296 135.281 225 135.281Z" fill="url(#paint5_linear_51_27)"/>
<path d="M125 139.381H108.333V147.579H125V139.381Z" fill="url(#paint6_linear_51_27)"/>
<path d="M158.334 139.381H141.667V147.579H158.334V139.381Z" fill="url(#paint7_linear_51_27)"/>
<defs>
<linearGradient id="paint0_linear_51_27" x1="0" y1="0" x2="266.667" y2="0" gradientUnits="userSpaceOnUse">
<stop stop-color="#8F5E25"/>
<stop offset="0.5" stop-color="#FBF4A1"/>
<stop offset="1" stop-color="#8F5E25"/>
</linearGradient>
<linearGradient id="paint1_linear_51_27" x1="41.667" y1="106.585" x2="91.667" y2="106.585" gradientUnits="userSpaceOnUse">
<stop stop-color="#8F5E25"/>
<stop offset="0.5" stop-color="#FBF4A1"/>
<stop offset="1" stop-color="#8F5E25"/>
</linearGradient>
<linearGradient id="paint2_linear_51_27" x1="170.834" y1="118.884" x2="195.834" y2="118.884" gradientUnits="userSpaceOnUse">
<stop stop-color="#8F5E25"/>
<stop offset="0.5" stop-color="#FBF4A1"/>
<stop offset="1" stop-color="#8F5E25"/>
</linearGradient>
<linearGradient id="paint3_linear_51_27" x1="191.667" y1="98.3864" x2="216.667" y2="98.3864" gradientUnits="userSpaceOnUse">
<stop stop-color="#8F5E25"/>
<stop offset="0.5" stop-color="#FBF4A1"/>
<stop offset="1" stop-color="#8F5E25"/>
</linearGradient>
<linearGradient id="paint4_linear_51_27" x1="191.667" y1="139.381" x2="216.667" y2="139.381" gradientUnits="userSpaceOnUse">
<stop stop-color="#8F5E25"/>
<stop offset="0.5" stop-color="#FBF4A1"/>
<stop offset="1" stop-color="#8F5E25"/>
</linearGradient>
<linearGradient id="paint5_linear_51_27" x1="212.5" y1="118.884" x2="237.5" y2="118.884" gradientUnits="userSpaceOnUse">
<stop stop-color="#8F5E25"/>
<stop offset="0.5" stop-color="#FBF4A1"/>
<stop offset="1" stop-color="#8F5E25"/>
</linearGradient>
<linearGradient id="paint6_linear_51_27" x1="108.333" y1="139.381" x2="125" y2="139.381" gradientUnits="userSpaceOnUse">
<stop stop-color="#8F5E25"/>
<stop offset="0.5" stop-color="#FBF4A1"/>
<stop offset="1" stop-color="#8F5E25"/>
</linearGradient>
<linearGradient id="paint7_linear_51_27" x1="141.667" y1="139.381" x2="158.334" y2="139.381" gradientUnits="userSpaceOnUse">
<stop stop-color="#8F5E25"/>
<stop offset="0.5" stop-color="#FBF4A1"/>
<stop offset="1" stop-color="#8F5E25"/>
</linearGradient>
</defs>
</svg>
